<?xml version="1.0" encoding="utf-8" standalone="no"?>
<!DOCTYPE svg PUBLIC "-//W3C//DTD SVG 1.1//EN"
  "http://www.w3.org/Graphics/SVG/1.1/DTD/svg11.dtd">
<!-- Created with matplotlib (https://matplotlib.org/) -->
<svg height="345.6pt" version="1.1" viewBox="0 0 460.8 345.6" width="460.8pt" xmlns="http://www.w3.org/2000/svg" xmlns:xlink="http://www.w3.org/1999/xlink">
 <metadata>
  <rdf:RDF xmlns:cc="http://creativecommons.org/ns#" xmlns:dc="http://purl.org/dc/elements/1.1/" xmlns:rdf="http://www.w3.org/1999/02/22-rdf-syntax-ns#">
   <cc:Work>
    <dc:type rdf:resource="http://purl.org/dc/dcmitype/StillImage"/>
    <dc:date>2020-11-22T22:23:21.437054</dc:date>
    <dc:format>image/svg+xml</dc:format>
    <dc:creator>
     <cc:Agent>
      <dc:title>Matplotlib v3.3.3, https://matplotlib.org/</dc:title>
     </cc:Agent>
    </dc:creator>
   </cc:Work>
  </rdf:RDF>
 </metadata>
 <defs>
  <style type="text/css">*{stroke-linecap:butt;stroke-linejoin:round;}</style>
 </defs>
 <g id="figure_1">
  <g id="patch_1">
   <path d="M 0 345.6 
L 460.8 345.6 
L 460.8 0 
L 0 0 
z
" style="fill:#ffffff;"/>
  </g>
  <g id="axes_1">
   <g id="patch_2">
    <path d="M 57.6 307.584 
L 414.72 307.584 
L 414.72 41.472 
L 57.6 41.472 
z
" style="fill:#ffffff;"/>
   </g>
   <g id="matplotlib.axis_1">
    <g id="xtick_1">
     <g id="line2d_1">
      <path clip-path="url(#p65476dceec)" d="M 77.811315 307.584 
L 77.811315 41.472 
" style="fill:none;stroke:#b0b0b0;stroke-linecap:square;stroke-opacity:0.6;stroke-width:0.8;"/>
     </g>
     <g id="line2d_2">
      <defs>
       <path d="M 0 0 
L 0 3.5 
" id="m4fcee41fb2" style="stroke:#000000;stroke-width:0.8;"/>
      </defs>
      <g>
       <use style="stroke:#000000;stroke-width:0.8;" x="77.811315" xlink:href="#m4fcee41fb2" y="307.584"/>
      </g>
     </g>
     <g id="text_1">
      <!-- 2.5 -->
      <g transform="translate(69.859753 322.182437)scale(0.1 -0.1)">
       <defs>
        <path d="M 19.1875 8.296875 
L 53.609375 8.296875 
L 53.609375 0 
L 7.328125 0 
L 7.328125 8.296875 
Q 12.9375 14.109375 22.625 23.890625 
Q 32.328125 33.6875 34.8125 36.53125 
Q 39.546875 41.84375 41.421875 45.53125 
Q 43.3125 49.21875 43.3125 52.78125 
Q 43.3125 58.59375 39.234375 62.25 
Q 35.15625 65.921875 28.609375 65.921875 
Q 23.96875 65.921875 18.8125 64.3125 
Q 13.671875 62.703125 7.8125 59.421875 
L 7.8125 69.390625 
Q 13.765625 71.78125 18.9375 73 
Q 24.125 74.21875 28.421875 74.21875 
Q 39.75 74.21875 46.484375 68.546875 
Q 53.21875 62.890625 53.21875 53.421875 
Q 53.21875 48.921875 51.53125 44.890625 
Q 49.859375 40.875 45.40625 35.40625 
Q 44.1875 33.984375 37.640625 27.21875 
Q 31.109375 20.453125 19.1875 8.296875 
z
" id="DejaVuSans-50"/>
        <path d="M 10.6875 12.40625 
L 21 12.40625 
L 21 0 
L 10.6875 0 
z
" id="DejaVuSans-46"/>
        <path d="M 10.796875 72.90625 
L 49.515625 72.90625 
L 49.515625 64.59375 
L 19.828125 64.59375 
L 19.828125 46.734375 
Q 21.96875 47.46875 24.109375 47.828125 
Q 26.265625 48.1875 28.421875 48.1875 
Q 40.625 48.1875 47.75 41.5 
Q 54.890625 34.8125 54.890625 23.390625 
Q 54.890625 11.625 47.5625 5.09375 
Q 40.234375 -1.421875 26.90625 -1.421875 
Q 22.3125 -1.421875 17.546875 -0.640625 
Q 12.796875 0.140625 7.71875 1.703125 
L 7.71875 11.625 
Q 12.109375 9.234375 16.796875 8.0625 
Q 21.484375 6.890625 26.703125 6.890625 
Q 35.15625 6.890625 40.078125 11.328125 
Q 45.015625 15.765625 45.015625 23.390625 
Q 45.015625 31 40.078125 35.4375 
Q 35.15625 39.890625 26.703125 39.890625 
Q 22.75 39.890625 18.8125 39.015625 
Q 14.890625 38.140625 10.796875 36.28125 
z
" id="DejaVuSans-53"/>
       </defs>
       <use xlink:href="#DejaVuSans-50"/>
       <use x="63.623047" xlink:href="#DejaVuSans-46"/>
       <use x="95.410156" xlink:href="#DejaVuSans-53"/>
      </g>
     </g>
    </g>
    <g id="xtick_2">
     <g id="line2d_3">
      <path clip-path="url(#p65476dceec)" d="M 124.172318 307.584 
L 124.172318 41.472 
" style="fill:none;stroke:#b0b0b0;stroke-linecap:square;stroke-opacity:0.6;stroke-width:0.8;"/>
     </g>
     <g id="line2d_4">
      <g>
       <use style="stroke:#000000;stroke-width:0.8;" x="124.172318" xlink:href="#m4fcee41fb2" y="307.584"/>
      </g>
     </g>
     <g id="text_2">
      <!-- 5.0 -->
      <g transform="translate(116.220755 322.182437)scale(0.1 -0.1)">
       <defs>
        <path d="M 31.78125 66.40625 
Q 24.171875 66.40625 20.328125 58.90625 
Q 16.5 51.421875 16.5 36.375 
Q 16.5 21.390625 20.328125 13.890625 
Q 24.171875 6.390625 31.78125 6.390625 
Q 39.453125 6.390625 43.28125 13.890625 
Q 47.125 21.390625 47.125 36.375 
Q 47.125 51.421875 43.28125 58.90625 
Q 39.453125 66.40625 31.78125 66.40625 
z
M 31.78125 74.21875 
Q 44.046875 74.21875 50.515625 64.515625 
Q 56.984375 54.828125 56.984375 36.375 
Q 56.984375 17.96875 50.515625 8.265625 
Q 44.046875 -1.421875 31.78125 -1.421875 
Q 19.53125 -1.421875 13.0625 8.265625 
Q 6.59375 17.96875 6.59375 36.375 
Q 6.59375 54.828125 13.0625 64.515625 
Q 19.53125 74.21875 31.78125 74.21875 
z
" id="DejaVuSans-48"/>
       </defs>
       <use xlink:href="#DejaVuSans-53"/>
       <use x="63.623047" xlink:href="#DejaVuSans-46"/>
       <use x="95.410156" xlink:href="#DejaVuSans-48"/>
      </g>
     </g>
    </g>
    <g id="xtick_3">
     <g id="line2d_5">
      <path clip-path="url(#p65476dceec)" d="M 170.53332 307.584 
L 170.53332 41.472 
" style="fill:none;stroke:#b0b0b0;stroke-linecap:square;stroke-opacity:0.6;stroke-width:0.8;"/>
     </g>
     <g id="line2d_6">
      <g>
       <use style="stroke:#000000;stroke-width:0.8;" x="170.53332" xlink:href="#m4fcee41fb2" y="307.584"/>
      </g>
     </g>
     <g id="text_3">
      <!-- 7.5 -->
      <g transform="translate(162.581758 322.182437)scale(0.1 -0.1)">
       <defs>
        <path d="M 8.203125 72.90625 
L 55.078125 72.90625 
L 55.078125 68.703125 
L 28.609375 0 
L 18.3125 0 
L 43.21875 64.59375 
L 8.203125 64.59375 
z
" id="DejaVuSans-55"/>
       </defs>
       <use xlink:href="#DejaVuSans-55"/>
       <use x="63.623047" xlink:href="#DejaVuSans-46"/>
       <use x="95.410156" xlink:href="#DejaVuSans-53"/>
      </g>
     </g>
    </g>
    <g id="xtick_4">
     <g id="line2d_7">
      <path clip-path="url(#p65476dceec)" d="M 216.894323 307.584 
L 216.894323 41.472 
" style="fill:none;stroke:#b0b0b0;stroke-linecap:square;stroke-opacity:0.6;stroke-width:0.8;"/>
     </g>
     <g id="line2d_8">
      <g>
       <use style="stroke:#000000;stroke-width:0.8;" x="216.894323" xlink:href="#m4fcee41fb2" y="307.584"/>
      </g>
     </g>
     <g id="text_4">
      <!-- 10.0 -->
      <g transform="translate(205.76151 322.182437)scale(0.1 -0.1)">
       <defs>
        <path d="M 12.40625 8.296875 
L 28.515625 8.296875 
L 28.515625 63.921875 
L 10.984375 60.40625 
L 10.984375 69.390625 
L 28.421875 72.90625 
L 38.28125 72.90625 
L 38.28125 8.296875 
L 54.390625 8.296875 
L 54.390625 0 
L 12.40625 0 
z
" id="DejaVuSans-49"/>
       </defs>
       <use xlink:href="#DejaVuSans-49"/>
       <use x="63.623047" xlink:href="#DejaVuSans-48"/>
       <use x="127.246094" xlink:href="#DejaVuSans-46"/>
       <use x="159.033203" xlink:href="#DejaVuSans-48"/>
      </g>
     </g>
    </g>
    <g id="xtick_5">
     <g id="line2d_9">
      <path clip-path="url(#p65476dceec)" d="M 263.255325 307.584 
L 263.255325 41.472 
" style="fill:none;stroke:#b0b0b0;stroke-linecap:square;stroke-opacity:0.6;stroke-width:0.8;"/>
     </g>
     <g id="line2d_10">
      <g>
       <use style="stroke:#000000;stroke-width:0.8;" x="263.255325" xlink:href="#m4fcee41fb2" y="307.584"/>
      </g>
     </g>
     <g id="text_5">
      <!-- 12.5 -->
      <g transform="translate(252.122513 322.182437)scale(0.1 -0.1)">
       <use xlink:href="#DejaVuSans-49"/>
       <use x="63.623047" xlink:href="#DejaVuSans-50"/>
       <use x="127.246094" xlink:href="#DejaVuSans-46"/>
       <use x="159.033203" xlink:href="#DejaVuSans-53"/>
      </g>
     </g>
    </g>
    <g id="xtick_6">
     <g id="line2d_11">
      <path clip-path="url(#p65476dceec)" d="M 309.616328 307.584 
L 309.616328 41.472 
" style="fill:none;stroke:#b0b0b0;stroke-linecap:square;stroke-opacity:0.6;stroke-width:0.8;"/>
     </g>
     <g id="line2d_12">
      <g>
       <use style="stroke:#000000;stroke-width:0.8;" x="309.616328" xlink:href="#m4fcee41fb2" y="307.584"/>
      </g>
     </g>
     <g id="text_6">
      <!-- 15.0 -->
      <g transform="translate(298.483515 322.182437)scale(0.1 -0.1)">
       <use xlink:href="#DejaVuSans-49"/>
       <use x="63.623047" xlink:href="#DejaVuSans-53"/>
       <use x="127.246094" xlink:href="#DejaVuSans-46"/>
       <use x="159.033203" xlink:href="#DejaVuSans-48"/>
      </g>
     </g>
    </g>
    <g id="xtick_7">
     <g id="line2d_13">
      <path clip-path="url(#p65476dceec)" d="M 355.977331 307.584 
L 355.977331 41.472 
" style="fill:none;stroke:#b0b0b0;stroke-linecap:square;stroke-opacity:0.6;stroke-width:0.8;"/>
     </g>
     <g id="line2d_14">
      <g>
       <use style="stroke:#000000;stroke-width:0.8;" x="355.977331" xlink:href="#m4fcee41fb2" y="307.584"/>
      </g>
     </g>
     <g id="text_7">
      <!-- 17.5 -->
      <g transform="translate(344.844518 322.182437)scale(0.1 -0.1)">
       <use xlink:href="#DejaVuSans-49"/>
       <use x="63.623047" xlink:href="#DejaVuSans-55"/>
       <use x="127.246094" xlink:href="#DejaVuSans-46"/>
       <use x="159.033203" xlink:href="#DejaVuSans-53"/>
      </g>
     </g>
    </g>
    <g id="xtick_8">
     <g id="line2d_15">
      <path clip-path="url(#p65476dceec)" d="M 402.338333 307.584 
L 402.338333 41.472 
" style="fill:none;stroke:#b0b0b0;stroke-linecap:square;stroke-opacity:0.6;stroke-width:0.8;"/>
     </g>
     <g id="line2d_16">
      <g>
       <use style="stroke:#000000;stroke-width:0.8;" x="402.338333" xlink:href="#m4fcee41fb2" y="307.584"/>
      </g>
     </g>
     <g id="text_8">
      <!-- 20.0 -->
      <g transform="translate(391.205521 322.182437)scale(0.1 -0.1)">
       <use xlink:href="#DejaVuSans-50"/>
       <use x="63.623047" xlink:href="#DejaVuSans-48"/>
       <use x="127.246094" xlink:href="#DejaVuSans-46"/>
       <use x="159.033203" xlink:href="#DejaVuSans-48"/>
      </g>
     </g>
    </g>
    <g id="text_9">
     <!-- $r$ [au] -->
     <g transform="translate(222.36 335.860562)scale(0.1 -0.1)">
      <defs>
       <path d="M 44.578125 46.390625 
Q 43.21875 47.125 41.453125 47.515625 
Q 39.703125 47.90625 37.703125 47.90625 
Q 30.515625 47.90625 25.140625 42.453125 
Q 19.78125 37.015625 18.015625 27.875 
L 12.5 0 
L 3.515625 0 
L 14.203125 54.6875 
L 23.1875 54.6875 
L 21.484375 46.1875 
Q 25.046875 50.921875 30 53.453125 
Q 34.96875 56 40.578125 56 
Q 42.046875 56 43.453125 55.828125 
Q 44.875 55.671875 46.296875 55.28125 
z
" id="DejaVuSans-Oblique-114"/>
       <path id="DejaVuSans-32"/>
       <path d="M 8.59375 75.984375 
L 29.296875 75.984375 
L 29.296875 69 
L 17.578125 69 
L 17.578125 -6.203125 
L 29.296875 -6.203125 
L 29.296875 -13.1875 
L 8.59375 -13.1875 
z
" id="DejaVuSans-91"/>
       <path d="M 34.28125 27.484375 
Q 23.390625 27.484375 19.1875 25 
Q 14.984375 22.515625 14.984375 16.5 
Q 14.984375 11.71875 18.140625 8.90625 
Q 21.296875 6.109375 26.703125 6.109375 
Q 34.1875 6.109375 38.703125 11.40625 
Q 43.21875 16.703125 43.21875 25.484375 
L 43.21875 27.484375 
z
M 52.203125 31.203125 
L 52.203125 0 
L 43.21875 0 
L 43.21875 8.296875 
Q 40.140625 3.328125 35.546875 0.953125 
Q 30.953125 -1.421875 24.3125 -1.421875 
Q 15.921875 -1.421875 10.953125 3.296875 
Q 6 8.015625 6 15.921875 
Q 6 25.140625 12.171875 29.828125 
Q 18.359375 34.515625 30.609375 34.515625 
L 43.21875 34.515625 
L 43.21875 35.40625 
Q 43.21875 41.609375 39.140625 45 
Q 35.0625 48.390625 27.6875 48.390625 
Q 23 48.390625 18.546875 47.265625 
Q 14.109375 46.140625 10.015625 43.890625 
L 10.015625 52.203125 
Q 14.9375 54.109375 19.578125 55.046875 
Q 24.21875 56 28.609375 56 
Q 40.484375 56 46.34375 49.84375 
Q 52.203125 43.703125 52.203125 31.203125 
z
" id="DejaVuSans-97"/>
       <path d="M 8.5 21.578125 
L 8.5 54.6875 
L 17.484375 54.6875 
L 17.484375 21.921875 
Q 17.484375 14.15625 20.5 10.265625 
Q 23.53125 6.390625 29.59375 6.390625 
Q 36.859375 6.390625 41.078125 11.03125 
Q 45.3125 15.671875 45.3125 23.6875 
L 45.3125 54.6875 
L 54.296875 54.6875 
L 54.296875 0 
L 45.3125 0 
L 45.3125 8.40625 
Q 42.046875 3.421875 37.71875 1 
Q 33.40625 -1.421875 27.6875 -1.421875 
Q 18.265625 -1.421875 13.375 4.4375 
Q 8.5 10.296875 8.5 21.578125 
z
M 31.109375 56 
z
" id="DejaVuSans-117"/>
       <path d="M 30.421875 75.984375 
L 30.421875 -13.1875 
L 9.71875 -13.1875 
L 9.71875 -6.203125 
L 21.390625 -6.203125 
L 21.390625 69 
L 9.71875 69 
L 9.71875 75.984375 
z
" id="DejaVuSans-93"/>
      </defs>
      <use transform="translate(0 0.015625)" xlink:href="#DejaVuSans-Oblique-114"/>
      <use transform="translate(41.113281 0.015625)" xlink:href="#DejaVuSans-32"/>
      <use transform="translate(72.900391 0.015625)" xlink:href="#DejaVuSans-91"/>
      <use transform="translate(111.914062 0.015625)" xlink:href="#DejaVuSans-97"/>
      <use transform="translate(173.193359 0.015625)" xlink:href="#DejaVuSans-117"/>
      <use transform="translate(236.572266 0.015625)" xlink:href="#DejaVuSans-93"/>
     </g>
    </g>
   </g>
   <g id="matplotlib.axis_2">
    <g id="ytick_1">
     <g id="line2d_17">
      <path clip-path="url(#p65476dceec)" d="M 57.6 226.239159 
L 414.72 226.239159 
" style="fill:none;stroke:#b0b0b0;stroke-linecap:square;stroke-opacity:0.6;stroke-width:0.8;"/>
     </g>
     <g id="line2d_18">
      <defs>
       <path d="M 0 0 
L -3.5 0 
" id="m7b1e82f7ba" style="stroke:#000000;stroke-width:0.8;"/>
      </defs>
      <g>
       <use style="stroke:#000000;stroke-width:0.8;" x="57.6" xlink:href="#m7b1e82f7ba" y="226.239159"/>
      </g>
     </g>
     <g id="text_10">
      <!-- $\mathdefault{10^{-2}}$ -->
      <g transform="translate(27.1 230.038378)scale(0.1 -0.1)">
       <defs>
        <path d="M 10.59375 35.5 
L 73.1875 35.5 
L 73.1875 27.203125 
L 10.59375 27.203125 
z
" id="DejaVuSans-8722"/>
       </defs>
       <use transform="translate(0 0.765625)" xlink:href="#DejaVuSans-49"/>
       <use transform="translate(63.623047 0.765625)" xlink:href="#DejaVuSans-48"/>
       <use transform="translate(128.203125 39.046875)scale(0.7)" xlink:href="#DejaVuSans-8722"/>
       <use transform="translate(186.855469 39.046875)scale(0.7)" xlink:href="#DejaVuSans-50"/>
      </g>
     </g>
    </g>
    <g id="ytick_2">
     <g id="line2d_19">
      <path clip-path="url(#p65476dceec)" d="M 57.6 139.90358 
L 414.72 139.90358 
" style="fill:none;stroke:#b0b0b0;stroke-linecap:square;stroke-opacity:0.6;stroke-width:0.8;"/>
     </g>
     <g id="line2d_20">
      <g>
       <use style="stroke:#000000;stroke-width:0.8;" x="57.6" xlink:href="#m7b1e82f7ba" y="139.90358"/>
      </g>
     </g>
     <g id="text_11">
      <!-- $\mathdefault{10^{-1}}$ -->
      <g transform="translate(27.1 143.702798)scale(0.1 -0.1)">
       <use transform="translate(0 0.684375)" xlink:href="#DejaVuSans-49"/>
       <use transform="translate(63.623047 0.684375)" xlink:href="#DejaVuSans-48"/>
       <use transform="translate(128.203125 38.965625)scale(0.7)" xlink:href="#DejaVuSans-8722"/>
       <use transform="translate(186.855469 38.965625)scale(0.7)" xlink:href="#DejaVuSans-49"/>
      </g>
     </g>
    </g>
    <g id="ytick_3">
     <g id="line2d_21">
      <path clip-path="url(#p65476dceec)" d="M 57.6 53.568 
L 414.72 53.568 
" style="fill:none;stroke:#b0b0b0;stroke-linecap:square;stroke-opacity:0.6;stroke-width:0.8;"/>
     </g>
     <g id="line2d_22">
      <g>
       <use style="stroke:#000000;stroke-width:0.8;" x="57.6" xlink:href="#m7b1e82f7ba" y="53.568"/>
      </g>
     </g>
     <g id="text_12">
      <!-- $\mathdefault{10^{0}}$ -->
      <g transform="translate(33 57.367219)scale(0.1 -0.1)">
       <use transform="translate(0 0.765625)" xlink:href="#DejaVuSans-49"/>
       <use transform="translate(63.623047 0.765625)" xlink:href="#DejaVuSans-48"/>
       <use transform="translate(128.203125 39.046875)scale(0.7)" xlink:href="#DejaVuSans-48"/>
      </g>
     </g>
    </g>
    <g id="ytick_4">
     <g id="line2d_23">
      <defs>
       <path d="M 0 0 
L -2 0 
" id="mcc7e9f72be" style="stroke:#000000;stroke-width:0.6;"/>
      </defs>
      <g>
       <use style="stroke:#000000;stroke-width:0.6;" x="57.6" xlink:href="#mcc7e9f72be" y="286.585139"/>
      </g>
     </g>
    </g>
    <g id="ytick_5">
     <g id="line2d_24">
      <g>
       <use style="stroke:#000000;stroke-width:0.6;" x="57.6" xlink:href="#mcc7e9f72be" y="271.382199"/>
      </g>
     </g>
    </g>
    <g id="ytick_6">
     <g id="line2d_25">
      <g>
       <use style="stroke:#000000;stroke-width:0.6;" x="57.6" xlink:href="#mcc7e9f72be" y="260.59554"/>
      </g>
     </g>
    </g>
    <g id="ytick_7">
     <g id="line2d_26">
      <g>
       <use style="stroke:#000000;stroke-width:0.6;" x="57.6" xlink:href="#mcc7e9f72be" y="252.228758"/>
      </g>
     </g>
    </g>
    <g id="ytick_8">
     <g id="line2d_27">
      <g>
       <use style="stroke:#000000;stroke-width:0.6;" x="57.6" xlink:href="#mcc7e9f72be" y="245.392599"/>
      </g>
     </g>
    </g>
    <g id="ytick_9">
     <g id="line2d_28">
      <g>
       <use style="stroke:#000000;stroke-width:0.6;" x="57.6" xlink:href="#mcc7e9f72be" y="239.61271"/>
      </g>
     </g>
    </g>
    <g id="ytick_10">
     <g id="line2d_29">
      <g>
       <use style="stroke:#000000;stroke-width:0.6;" x="57.6" xlink:href="#mcc7e9f72be" y="234.605941"/>
      </g>
     </g>
    </g>
    <g id="ytick_11">
     <g id="line2d_30">
      <g>
       <use style="stroke:#000000;stroke-width:0.6;" x="57.6" xlink:href="#mcc7e9f72be" y="230.189659"/>
      </g>
     </g>
    </g>
    <g id="ytick_12">
     <g id="line2d_31">
      <g>
       <use style="stroke:#000000;stroke-width:0.6;" x="57.6" xlink:href="#mcc7e9f72be" y="200.24956"/>
      </g>
     </g>
    </g>
    <g id="ytick_13">
     <g id="line2d_32">
      <g>
       <use style="stroke:#000000;stroke-width:0.6;" x="57.6" xlink:href="#mcc7e9f72be" y="185.046619"/>
      </g>
     </g>
    </g>
    <g id="ytick_14">
     <g id="line2d_33">
      <g>
       <use style="stroke:#000000;stroke-width:0.6;" x="57.6" xlink:href="#mcc7e9f72be" y="174.259961"/>
      </g>
     </g>
    </g>
    <g id="ytick_15">
     <g id="line2d_34">
      <g>
       <use style="stroke:#000000;stroke-width:0.6;" x="57.6" xlink:href="#mcc7e9f72be" y="165.893179"/>
      </g>
     </g>
    </g>
    <g id="ytick_16">
     <g id="line2d_35">
      <g>
       <use style="stroke:#000000;stroke-width:0.6;" x="57.6" xlink:href="#mcc7e9f72be" y="159.05702"/>
      </g>
     </g>
    </g>
    <g id="ytick_17">
     <g id="line2d_36">
      <g>
       <use style="stroke:#000000;stroke-width:0.6;" x="57.6" xlink:href="#mcc7e9f72be" y="153.27713"/>
      </g>
     </g>
    </g>
    <g id="ytick_18">
     <g id="line2d_37">
      <g>
       <use style="stroke:#000000;stroke-width:0.6;" x="57.6" xlink:href="#mcc7e9f72be" y="148.270362"/>
      </g>
     </g>
    </g>
    <g id="ytick_19">
     <g id="line2d_38">
      <g>
       <use style="stroke:#000000;stroke-width:0.6;" x="57.6" xlink:href="#mcc7e9f72be" y="143.854079"/>
      </g>
     </g>
    </g>
    <g id="ytick_20">
     <g id="line2d_39">
      <g>
       <use style="stroke:#000000;stroke-width:0.6;" x="57.6" xlink:href="#mcc7e9f72be" y="113.91398"/>
      </g>
     </g>
    </g>
    <g id="ytick_21">
     <g id="line2d_40">
      <g>
       <use style="stroke:#000000;stroke-width:0.6;" x="57.6" xlink:href="#mcc7e9f72be" y="98.71104"/>
      </g>
     </g>
    </g>
    <g id="ytick_22">
     <g id="line2d_41">
      <g>
       <use style="stroke:#000000;stroke-width:0.6;" x="57.6" xlink:href="#mcc7e9f72be" y="87.924381"/>
      </g>
     </g>
    </g>
    <g id="ytick_23">
     <g id="line2d_42">
      <g>
       <use style="stroke:#000000;stroke-width:0.6;" x="57.6" xlink:href="#mcc7e9f72be" y="79.557599"/>
      </g>
     </g>
    </g>
    <g id="ytick_24">
     <g id="line2d_43">
      <g>
       <use style="stroke:#000000;stroke-width:0.6;" x="57.6" xlink:href="#mcc7e9f72be" y="72.72144"/>
      </g>
     </g>
    </g>
    <g id="ytick_25">
     <g id="line2d_44">
      <g>
       <use style="stroke:#000000;stroke-width:0.6;" x="57.6" xlink:href="#mcc7e9f72be" y="66.94155"/>
      </g>
     </g>
    </g>
    <g id="ytick_26">
     <g id="line2d_45">
      <g>
       <use style="stroke:#000000;stroke-width:0.6;" x="57.6" xlink:href="#mcc7e9f72be" y="61.934782"/>
      </g>
     </g>
    </g>
    <g id="ytick_27">
     <g id="line2d_46">
      <g>
       <use style="stroke:#000000;stroke-width:0.6;" x="57.6" xlink:href="#mcc7e9f72be" y="57.518499"/>
      </g>
     </g>
    </g>
    <g id="text_13">
     <!-- particle histogram normalized -->
     <g transform="translate(21.020312 249.693625)rotate(-90)scale(0.1 -0.1)">
      <defs>
       <path d="M 18.109375 8.203125 
L 18.109375 -20.796875 
L 9.078125 -20.796875 
L 9.078125 54.6875 
L 18.109375 54.6875 
L 18.109375 46.390625 
Q 20.953125 51.265625 25.265625 53.625 
Q 29.59375 56 35.59375 56 
Q 45.5625 56 51.78125 48.09375 
Q 58.015625 40.1875 58.015625 27.296875 
Q 58.015625 14.40625 51.78125 6.484375 
Q 45.5625 -1.421875 35.59375 -1.421875 
Q 29.59375 -1.421875 25.265625 0.953125 
Q 20.953125 3.328125 18.109375 8.203125 
z
M 48.6875 27.296875 
Q 48.6875 37.203125 44.609375 42.84375 
Q 40.53125 48.484375 33.40625 48.484375 
Q 26.265625 48.484375 22.1875 42.84375 
Q 18.109375 37.203125 18.109375 27.296875 
Q 18.109375 17.390625 22.1875 11.75 
Q 26.265625 6.109375 33.40625 6.109375 
Q 40.53125 6.109375 44.609375 11.75 
Q 48.6875 17.390625 48.6875 27.296875 
z
" id="DejaVuSans-112"/>
       <path d="M 41.109375 46.296875 
Q 39.59375 47.171875 37.8125 47.578125 
Q 36.03125 48 33.890625 48 
Q 26.265625 48 22.1875 43.046875 
Q 18.109375 38.09375 18.109375 28.8125 
L 18.109375 0 
L 9.078125 0 
L 9.078125 54.6875 
L 18.109375 54.6875 
L 18.109375 46.1875 
Q 20.953125 51.171875 25.484375 53.578125 
Q 30.03125 56 36.53125 56 
Q 37.453125 56 38.578125 55.875 
Q 39.703125 55.765625 41.0625 55.515625 
z
" id="DejaVuSans-114"/>
       <path d="M 18.3125 70.21875 
L 18.3125 54.6875 
L 36.8125 54.6875 
L 36.8125 47.703125 
L 18.3125 47.703125 
L 18.3125 18.015625 
Q 18.3125 11.328125 20.140625 9.421875 
Q 21.96875 7.515625 27.59375 7.515625 
L 36.8125 7.515625 
L 36.8125 0 
L 27.59375 0 
Q 17.1875 0 13.234375 3.875 
Q 9.28125 7.765625 9.28125 18.015625 
L 9.28125 47.703125 
L 2.6875 47.703125 
L 2.6875 54.6875 
L 9.28125 54.6875 
L 9.28125 70.21875 
z
" id="DejaVuSans-116"/>
       <path d="M 9.421875 54.6875 
L 18.40625 54.6875 
L 18.40625 0 
L 9.421875 0 
z
M 9.421875 75.984375 
L 18.40625 75.984375 
L 18.40625 64.59375 
L 9.421875 64.59375 
z
" id="DejaVuSans-105"/>
       <path d="M 48.78125 52.59375 
L 48.78125 44.1875 
Q 44.96875 46.296875 41.140625 47.34375 
Q 37.3125 48.390625 33.40625 48.390625 
Q 24.65625 48.390625 19.8125 42.84375 
Q 14.984375 37.3125 14.984375 27.296875 
Q 14.984375 17.28125 19.8125 11.734375 
Q 24.65625 6.203125 33.40625 6.203125 
Q 37.3125 6.203125 41.140625 7.25 
Q 44.96875 8.296875 48.78125 10.40625 
L 48.78125 2.09375 
Q 45.015625 0.34375 40.984375 -0.53125 
Q 36.96875 -1.421875 32.421875 -1.421875 
Q 20.0625 -1.421875 12.78125 6.34375 
Q 5.515625 14.109375 5.515625 27.296875 
Q 5.515625 40.671875 12.859375 48.328125 
Q 20.21875 56 33.015625 56 
Q 37.15625 56 41.109375 55.140625 
Q 45.0625 54.296875 48.78125 52.59375 
z
" id="DejaVuSans-99"/>
       <path d="M 9.421875 75.984375 
L 18.40625 75.984375 
L 18.40625 0 
L 9.421875 0 
z
" id="DejaVuSans-108"/>
       <path d="M 56.203125 29.59375 
L 56.203125 25.203125 
L 14.890625 25.203125 
Q 15.484375 15.921875 20.484375 11.0625 
Q 25.484375 6.203125 34.421875 6.203125 
Q 39.59375 6.203125 44.453125 7.46875 
Q 49.3125 8.734375 54.109375 11.28125 
L 54.109375 2.78125 
Q 49.265625 0.734375 44.1875 -0.34375 
Q 39.109375 -1.421875 33.890625 -1.421875 
Q 20.796875 -1.421875 13.15625 6.1875 
Q 5.515625 13.8125 5.515625 26.8125 
Q 5.515625 40.234375 12.765625 48.109375 
Q 20.015625 56 32.328125 56 
Q 43.359375 56 49.78125 48.890625 
Q 56.203125 41.796875 56.203125 29.59375 
z
M 47.21875 32.234375 
Q 47.125 39.59375 43.09375 43.984375 
Q 39.0625 48.390625 32.421875 48.390625 
Q 24.90625 48.390625 20.390625 44.140625 
Q 15.875 39.890625 15.1875 32.171875 
z
" id="DejaVuSans-101"/>
       <path d="M 54.890625 33.015625 
L 54.890625 0 
L 45.90625 0 
L 45.90625 32.71875 
Q 45.90625 40.484375 42.875 44.328125 
Q 39.84375 48.1875 33.796875 48.1875 
Q 26.515625 48.1875 22.3125 43.546875 
Q 18.109375 38.921875 18.109375 30.90625 
L 18.109375 0 
L 9.078125 0 
L 9.078125 75.984375 
L 18.109375 75.984375 
L 18.109375 46.1875 
Q 21.34375 51.125 25.703125 53.5625 
Q 30.078125 56 35.796875 56 
Q 45.21875 56 50.046875 50.171875 
Q 54.890625 44.34375 54.890625 33.015625 
z
" id="DejaVuSans-104"/>
       <path d="M 44.28125 53.078125 
L 44.28125 44.578125 
Q 40.484375 46.53125 36.375 47.5 
Q 32.28125 48.484375 27.875 48.484375 
Q 21.1875 48.484375 17.84375 46.4375 
Q 14.5 44.390625 14.5 40.28125 
Q 14.5 37.15625 16.890625 35.375 
Q 19.28125 33.59375 26.515625 31.984375 
L 29.59375 31.296875 
Q 39.15625 29.25 43.1875 25.515625 
Q 47.21875 21.78125 47.21875 15.09375 
Q 47.21875 7.46875 41.1875 3.015625 
Q 35.15625 -1.421875 24.609375 -1.421875 
Q 20.21875 -1.421875 15.453125 -0.5625 
Q 10.6875 0.296875 5.421875 2 
L 5.421875 11.28125 
Q 10.40625 8.6875 15.234375 7.390625 
Q 20.0625 6.109375 24.8125 6.109375 
Q 31.15625 6.109375 34.5625 8.28125 
Q 37.984375 10.453125 37.984375 14.40625 
Q 37.984375 18.0625 35.515625 20.015625 
Q 33.0625 21.96875 24.703125 23.78125 
L 21.578125 24.515625 
Q 13.234375 26.265625 9.515625 29.90625 
Q 5.8125 33.546875 5.8125 39.890625 
Q 5.8125 47.609375 11.28125 51.796875 
Q 16.75 56 26.8125 56 
Q 31.78125 56 36.171875 55.265625 
Q 40.578125 54.546875 44.28125 53.078125 
z
" id="DejaVuSans-115"/>
       <path d="M 30.609375 48.390625 
Q 23.390625 48.390625 19.1875 42.75 
Q 14.984375 37.109375 14.984375 27.296875 
Q 14.984375 17.484375 19.15625 11.84375 
Q 23.34375 6.203125 30.609375 6.203125 
Q 37.796875 6.203125 41.984375 11.859375 
Q 46.1875 17.53125 46.1875 27.296875 
Q 46.1875 37.015625 41.984375 42.703125 
Q 37.796875 48.390625 30.609375 48.390625 
z
M 30.609375 56 
Q 42.328125 56 49.015625 48.375 
Q 55.71875 40.765625 55.71875 27.296875 
Q 55.71875 13.875 49.015625 6.21875 
Q 42.328125 -1.421875 30.609375 -1.421875 
Q 18.84375 -1.421875 12.171875 6.21875 
Q 5.515625 13.875 5.515625 27.296875 
Q 5.515625 40.765625 12.171875 48.375 
Q 18.84375 56 30.609375 56 
z
" id="DejaVuSans-111"/>
       <path d="M 45.40625 27.984375 
Q 45.40625 37.75 41.375 43.109375 
Q 37.359375 48.484375 30.078125 48.484375 
Q 22.859375 48.484375 18.828125 43.109375 
Q 14.796875 37.75 14.796875 27.984375 
Q 14.796875 18.265625 18.828125 12.890625 
Q 22.859375 7.515625 30.078125 7.515625 
Q 37.359375 7.515625 41.375 12.890625 
Q 45.40625 18.265625 45.40625 27.984375 
z
M 54.390625 6.78125 
Q 54.390625 -7.171875 48.1875 -13.984375 
Q 42 -20.796875 29.203125 -20.796875 
Q 24.46875 -20.796875 20.265625 -20.09375 
Q 16.0625 -19.390625 12.109375 -17.921875 
L 12.109375 -9.1875 
Q 16.0625 -11.328125 19.921875 -12.34375 
Q 23.78125 -13.375 27.78125 -13.375 
Q 36.625 -13.375 41.015625 -8.765625 
Q 45.40625 -4.15625 45.40625 5.171875 
L 45.40625 9.625 
Q 42.625 4.78125 38.28125 2.390625 
Q 33.9375 0 27.875 0 
Q 17.828125 0 11.671875 7.65625 
Q 5.515625 15.328125 5.515625 27.984375 
Q 5.515625 40.671875 11.671875 48.328125 
Q 17.828125 56 27.875 56 
Q 33.9375 56 38.28125 53.609375 
Q 42.625 51.21875 45.40625 46.390625 
L 45.40625 54.6875 
L 54.390625 54.6875 
z
" id="DejaVuSans-103"/>
       <path d="M 52 44.1875 
Q 55.375 50.25 60.0625 53.125 
Q 64.75 56 71.09375 56 
Q 79.640625 56 84.28125 50.015625 
Q 88.921875 44.046875 88.921875 33.015625 
L 88.921875 0 
L 79.890625 0 
L 79.890625 32.71875 
Q 79.890625 40.578125 77.09375 44.375 
Q 74.3125 48.1875 68.609375 48.1875 
Q 61.625 48.1875 57.5625 43.546875 
Q 53.515625 38.921875 53.515625 30.90625 
L 53.515625 0 
L 44.484375 0 
L 44.484375 32.71875 
Q 44.484375 40.625 41.703125 44.40625 
Q 38.921875 48.1875 33.109375 48.1875 
Q 26.21875 48.1875 22.15625 43.53125 
Q 18.109375 38.875 18.109375 30.90625 
L 18.109375 0 
L 9.078125 0 
L 9.078125 54.6875 
L 18.109375 54.6875 
L 18.109375 46.1875 
Q 21.1875 51.21875 25.484375 53.609375 
Q 29.78125 56 35.6875 56 
Q 41.65625 56 45.828125 52.96875 
Q 50 49.953125 52 44.1875 
z
" id="DejaVuSans-109"/>
       <path d="M 54.890625 33.015625 
L 54.890625 0 
L 45.90625 0 
L 45.90625 32.71875 
Q 45.90625 40.484375 42.875 44.328125 
Q 39.84375 48.1875 33.796875 48.1875 
Q 26.515625 48.1875 22.3125 43.546875 
Q 18.109375 38.921875 18.109375 30.90625 
L 18.109375 0 
L 9.078125 0 
L 9.078125 54.6875 
L 18.109375 54.6875 
L 18.109375 46.1875 
Q 21.34375 51.125 25.703125 53.5625 
Q 30.078125 56 35.796875 56 
Q 45.21875 56 50.046875 50.171875 
Q 54.890625 44.34375 54.890625 33.015625 
z
" id="DejaVuSans-110"/>
       <path d="M 5.515625 54.6875 
L 48.1875 54.6875 
L 48.1875 46.484375 
L 14.40625 7.171875 
L 48.1875 7.171875 
L 48.1875 0 
L 4.296875 0 
L 4.296875 8.203125 
L 38.09375 47.515625 
L 5.515625 47.515625 
z
" id="DejaVuSans-122"/>
       <path d="M 45.40625 46.390625 
L 45.40625 75.984375 
L 54.390625 75.984375 
L 54.390625 0 
L 45.40625 0 
L 45.40625 8.203125 
Q 42.578125 3.328125 38.25 0.953125 
Q 33.9375 -1.421875 27.875 -1.421875 
Q 17.96875 -1.421875 11.734375 6.484375 
Q 5.515625 14.40625 5.515625 27.296875 
Q 5.515625 40.1875 11.734375 48.09375 
Q 17.96875 56 27.875 56 
Q 33.9375 56 38.25 53.625 
Q 42.578125 51.265625 45.40625 46.390625 
z
M 14.796875 27.296875 
Q 14.796875 17.390625 18.875 11.75 
Q 22.953125 6.109375 30.078125 6.109375 
Q 37.203125 6.109375 41.296875 11.75 
Q 45.40625 17.390625 45.40625 27.296875 
Q 45.40625 37.203125 41.296875 42.84375 
Q 37.203125 48.484375 30.078125 48.484375 
Q 22.953125 48.484375 18.875 42.84375 
Q 14.796875 37.203125 14.796875 27.296875 
z
" id="DejaVuSans-100"/>
      </defs>
      <use xlink:href="#DejaVuSans-112"/>
      <use x="63.476562" xlink:href="#DejaVuSans-97"/>
      <use x="124.755859" xlink:href="#DejaVuSans-114"/>
      <use x="165.869141" xlink:href="#DejaVuSans-116"/>
      <use x="205.078125" xlink:href="#DejaVuSans-105"/>
      <use x="232.861328" xlink:href="#DejaVuSans-99"/>
      <use x="287.841797" xlink:href="#DejaVuSans-108"/>
      <use x="315.625" xlink:href="#DejaVuSans-101"/>
      <use x="377.148438" xlink:href="#DejaVuSans-32"/>
      <use x="408.935547" xlink:href="#DejaVuSans-104"/>
      <use x="472.314453" xlink:href="#DejaVuSans-105"/>
      <use x="500.097656" xlink:href="#DejaVuSans-115"/>
      <use x="552.197266" xlink:href="#DejaVuSans-116"/>
      <use x="591.40625" xlink:href="#DejaVuSans-111"/>
      <use x="652.587891" xlink:href="#DejaVuSans-103"/>
      <use x="716.064453" xlink:href="#DejaVuSans-114"/>
      <use x="757.177734" xlink:href="#DejaVuSans-97"/>
      <use x="818.457031" xlink:href="#DejaVuSans-109"/>
      <use x="915.869141" xlink:href="#DejaVuSans-32"/>
      <use x="947.65625" xlink:href="#DejaVuSans-110"/>
      <use x="1011.035156" xlink:href="#DejaVuSans-111"/>
      <use x="1072.216797" xlink:href="#DejaVuSans-114"/>
      <use x="1111.580078" xlink:href="#DejaVuSans-109"/>
      <use x="1208.992188" xlink:href="#DejaVuSans-97"/>
      <use x="1270.271484" xlink:href="#DejaVuSans-108"/>
      <use x="1298.054688" xlink:href="#DejaVuSans-105"/>
      <use x="1325.837891" xlink:href="#DejaVuSans-122"/>
      <use x="1378.328125" xlink:href="#DejaVuSans-101"/>
      <use x="1439.851562" xlink:href="#DejaVuSans-100"/>
     </g>
    </g>
   </g>
   <g id="line2d_47">
    <path clip-path="url(#p65476dceec)" d="M 167.737225 295.488 
L 169.829559 295.488 
L 171.921894 269.498401 
L 174.014228 269.498401 
L 176.106562 254.29546 
L 178.198896 213.10292 
L 180.29123 205.578759 
L 182.383564 189.256479 
L 184.475898 183.162821 
L 186.568232 160.096395 
L 188.660566 151.126462 
L 190.7529 128.910499 
L 192.845234 131.183623 
L 194.937568 107.6139 
L 197.029902 99.750415 
L 199.122237 89.5253 
L 201.214571 81.12767 
L 203.306905 73.357639 
L 205.399239 69.638436 
L 207.491573 62.847699 
L 209.583907 59.51583 
L 211.676241 57.100286 
L 213.768575 56.074716 
L 215.860909 53.686468 
L 217.953243 53.568 
L 220.045577 54.953517 
L 222.137911 58.288609 
L 224.230245 59.033793 
L 226.322579 62.696509 
L 228.414914 68.476398 
L 230.507248 75.524394 
L 232.599582 84.211193 
L 234.691916 82.254485 
L 236.78425 95.537358 
L 238.876584 103.14211 
L 240.968918 112.124038 
L 243.061252 117.251823 
L 245.153586 128.910499 
L 247.24592 132.132916 
L 249.338254 146.621644 
L 251.430588 160.096395 
L 253.522922 166.730424 
L 255.615256 179.58916 
L 257.707591 191.529603 
L 259.799925 209.15242 
L 261.892259 254.29546 
L 263.984593 235.14202 
L 266.076927 222.525971 
L 266.07994 346.6 
M 270.260353 346.6 
L 270.261595 295.488 
L 272.353929 269.498401 
" style="fill:none;stroke:#1f77b4;stroke-linecap:square;stroke-width:1.5;"/>
   </g>
   <g id="line2d_48">
    <path clip-path="url(#p65476dceec)" d="M 282.541502 307.584 
L 282.541502 41.472 
" style="fill:none;stroke:#000000;stroke-dasharray:1.5,2.475;stroke-dashoffset:0;stroke-opacity:0.75;stroke-width:1.5;"/>
   </g>
   <g id="line2d_49">
    <path clip-path="url(#p65476dceec)" d="M 164.413668 307.584 
L 164.413668 41.472 
" style="fill:none;stroke:#000000;stroke-dasharray:1.5,2.475;stroke-dashoffset:0;stroke-opacity:0.75;stroke-width:1.5;"/>
   </g>
   <g id="line2d_50">
    <path clip-path="url(#p65476dceec)" d="M 142.304754 211.409306 
L 146.686472 207.458807 
L 151.06819 185.419707 
L 155.449908 147.870328 
L 159.831627 133.964924 
L 164.213345 115.882844 
L 168.595063 103.972053 
L 172.976781 94.391128 
L 177.358499 92.596763 
L 181.740217 82.51758 
L 186.121935 76.699449 
L 190.503653 71.764414 
L 194.885371 67.763687 
L 199.267089 61.996706 
L 203.648808 60.404159 
L 208.030526 57.822217 
L 212.412244 56.32765 
L 216.793962 56.261111 
L 221.17568 53.568 
L 225.557398 56.999623 
L 229.939116 59.961299 
L 234.320834 64.561471 
L 238.702552 64.644517 
L 243.08427 68.126838 
L 247.465989 73.724713 
L 251.847707 77.745891 
L 256.229425 84.58205 
L 260.611143 92.42196 
L 264.992861 94.207777 
L 269.374579 104.933517 
L 273.756297 109.319378 
L 278.138015 120.014918 
L 282.519733 126.344868 
L 286.901451 133.964924 
L 291.28317 146.370326 
L 295.664888 156.428902 
L 300.046606 156.428902 
L 304.428324 181.469208 
L 308.810042 192.255866 
L 313.19176 200.622648 
L 317.573478 207.458807 
L 321.955196 226.612247 
L 326.336914 233.448406 
L 330.718632 252.601847 
L 335.10035 267.804787 
L 339.482069 267.804787 
L 343.863787 293.794387 
L 343.866474 346.6 
M 357.006253 346.6 
L 357.008941 293.794387 
L 361.390659 293.794387 
" style="fill:none;stroke:#ff7f0e;stroke-linecap:square;stroke-width:1.5;"/>
   </g>
   <g id="line2d_51">
    <path clip-path="url(#p65476dceec)" d="M 282.541502 307.584 
L 282.541502 41.472 
" style="fill:none;stroke:#000000;stroke-dasharray:1.5,2.475;stroke-dashoffset:0;stroke-opacity:0.75;stroke-width:1.5;"/>
   </g>
   <g id="line2d_52">
    <path clip-path="url(#p65476dceec)" d="M 164.413668 307.584 
L 164.413668 41.472 
" style="fill:none;stroke:#000000;stroke-dasharray:1.5,2.475;stroke-dashoffset:0;stroke-opacity:0.75;stroke-width:1.5;"/>
   </g>
   <g id="line2d_53">
    <path clip-path="url(#p65476dceec)" d="M 118.61139 286.809438 
L 124.080684 245.616898 
L 129.549977 196.900197 
L 135.019271 174.484259 
L 140.488564 150.417905 
L 145.957858 122.039278 
L 151.427151 111.953482 
L 156.896445 98.192837 
L 162.365738 82.261814 
L 167.835032 70.760942 
L 173.304326 71.355171 
L 178.773619 66.845832 
L 184.242913 64.280189 
L 189.712206 60.598473 
L 195.1815 55.794564 
L 200.650793 54.934368 
L 206.120087 54.320938 
L 211.589381 55.167017 
L 217.058674 53.568 
L 222.527968 54.780067 
L 227.997261 57.742798 
L 233.466555 57.659568 
L 238.935848 58.077577 
L 244.405142 60.151566 
L 249.874435 65.90185 
L 255.343729 66.845832 
L 260.813023 68.808231 
L 266.282316 75.398958 
L 271.75161 81.001357 
L 277.220903 83.732397 
L 282.690197 87.961671 
L 288.15949 92.518123 
L 293.628784 106.072663 
L 299.098077 103.728458 
L 304.567371 116.859321 
L 310.036665 129.154211 
L 315.505958 131.462329 
L 320.975252 140.88538 
L 326.444545 149.443953 
L 331.913839 149.443953 
L 337.383132 170.910598 
L 342.852426 176.407504 
L 348.32172 226.463457 
L 353.791013 204.424358 
L 359.260307 219.627298 
L 364.7296 200.473858 
L 370.198894 245.616898 
L 375.668187 234.830239 
L 381.137481 245.616898 
L 386.606774 286.809438 
L 392.076068 245.616898 
" style="fill:none;stroke:#2ca02c;stroke-linecap:square;stroke-width:1.5;"/>
   </g>
   <g id="line2d_54">
    <path clip-path="url(#p65476dceec)" d="M 282.541502 307.584 
L 282.541502 41.472 
" style="fill:none;stroke:#000000;stroke-dasharray:1.5,2.475;stroke-dashoffset:0;stroke-opacity:0.75;stroke-width:1.5;"/>
   </g>
   <g id="line2d_55">
    <path clip-path="url(#p65476dceec)" d="M 164.413668 307.584 
L 164.413668 41.472 
" style="fill:none;stroke:#000000;stroke-dasharray:1.5,2.475;stroke-dashoffset:0;stroke-opacity:0.75;stroke-width:1.5;"/>
   </g>
   <g id="line2d_56">
    <path clip-path="url(#p65476dceec)" d="M 96.354699 226.537926 
L 102.385719 226.537926 
L 108.416738 193.712168 
L 114.447757 154.662787 
L 120.478777 139.459846 
L 126.509796 122.57953 
L 132.540815 112.027951 
L 138.571834 98.760669 
L 144.602854 91.349547 
L 150.633873 76.832093 
L 156.664892 67.02667 
L 162.695912 54.931607 
L 168.726931 53.568 
L 174.75795 74.812121 
L 180.788969 70.134548 
L 186.819989 72.895432 
L 192.851008 73.397045 
L 198.882027 73.650391 
L 204.913047 72.40044 
L 210.944066 76.011 
L 216.975085 78.098463 
L 223.006104 78.675322 
L 229.037124 73.1454 
L 235.068143 77.530345 
L 241.099162 78.967113 
L 247.130182 75.74125 
L 253.161201 82.336282 
L 259.19222 78.098463 
L 265.223239 80.767222 
L 271.254259 84.99191 
L 277.285278 86.752565 
L 283.316297 79.557599 
L 289.347316 73.777709 
L 295.378336 87.114839 
L 301.409355 93.016269 
L 307.440374 94.316806 
L 313.471394 99.009807 
L 319.502413 96.82501 
L 325.533432 107.376589 
L 331.564451 113.104438 
L 337.595471 120.306405 
L 343.62649 121.199187 
L 349.657509 132.746421 
L 355.688529 137.316687 
L 361.719548 133.366188 
L 367.750567 152.519628 
L 373.781586 158.12633 
L 379.812606 176.481973 
L 385.843625 200.548327 
L 391.874644 187.932278 
L 397.905664 208.915109 
" style="fill:none;stroke:#d62728;stroke-linecap:square;stroke-width:1.5;"/>
   </g>
   <g id="line2d_57">
    <path clip-path="url(#p65476dceec)" d="M 282.541502 307.584 
L 282.541502 41.472 
" style="fill:none;stroke:#000000;stroke-dasharray:1.5,2.475;stroke-dashoffset:0;stroke-opacity:0.75;stroke-width:1.5;"/>
   </g>
   <g id="line2d_58">
    <path clip-path="url(#p65476dceec)" d="M 164.413668 307.584 
L 164.413668 41.472 
" style="fill:none;stroke:#000000;stroke-dasharray:1.5,2.475;stroke-dashoffset:0;stroke-opacity:0.75;stroke-width:1.5;"/>
   </g>
   <g id="line2d_59">
    <path clip-path="url(#p65476dceec)" d="M 87.161097 244.615963 
L 93.387621 214.210081 
L 99.614144 182.440592 
L 105.840668 175.9032 
L 112.067191 153.04 
L 118.293715 130.01766 
L 124.520238 127.874501 
L 130.746762 105.375334 
L 136.973285 101.060802 
L 143.199809 90.325122 
L 149.426332 82.606686 
L 155.652856 69.671679 
L 161.879379 60.622991 
L 168.105903 53.568 
L 174.332426 91.887643 
L 180.55895 91.098244 
L 186.785473 95.397537 
L 193.011997 93.685136 
L 199.23852 95.048743 
L 205.465044 95.222735 
L 211.691567 92.857397 
L 217.918091 94.190695 
L 224.144614 100.857576 
L 230.371138 103.808148 
L 236.597662 102.941171 
L 242.824185 107.734292 
L 249.050709 106.536264 
L 255.277232 106.06757 
L 261.503756 105.835402 
L 267.730279 108.471923 
L 273.956803 109.734503 
L 280.183326 107.734292 
L 286.40985 84.654707 
L 292.636373 93.021489 
L 298.862897 105.375334 
L 305.08942 108.721061 
L 311.315944 108.971865 
L 317.542467 116.468076 
L 323.768991 121.387136 
L 329.995514 129.145642 
L 336.222038 130.461394 
L 342.448561 130.910442 
L 348.675085 145.664334 
L 354.901608 148.443018 
L 361.128132 147.027942 
L 367.354655 165.49338 
L 373.581179 179.029599 
L 379.807702 180.696321 
L 386.034226 184.269982 
L 392.260749 200.422216 
L 398.487273 206.68592 
" style="fill:none;stroke:#9467bd;stroke-linecap:square;stroke-width:1.5;"/>
   </g>
   <g id="line2d_60">
    <path clip-path="url(#p65476dceec)" d="M 282.541502 307.584 
L 282.541502 41.472 
" style="fill:none;stroke:#000000;stroke-dasharray:1.5,2.475;stroke-dashoffset:0;stroke-opacity:0.75;stroke-width:1.5;"/>
   </g>
   <g id="line2d_61">
    <path clip-path="url(#p65476dceec)" d="M 164.413668 307.584 
L 164.413668 41.472 
" style="fill:none;stroke:#000000;stroke-dasharray:1.5,2.475;stroke-dashoffset:0;stroke-opacity:0.75;stroke-width:1.5;"/>
   </g>
   <g id="line2d_62">
    <path clip-path="url(#p65476dceec)" d="M 73.832727 271.494515 
L 80.301475 286.697456 
L 86.770223 245.504916 
L 93.23897 202.285122 
L 99.707718 174.372278 
L 106.176466 161.756229 
L 112.645213 151.815996 
L 119.113961 136.102911 
L 125.582709 122.159464 
L 132.051456 115.556921 
L 138.520204 108.623245 
L 144.988952 101.276576 
L 151.457699 90.058745 
L 157.926447 81.200539 
L 164.395195 53.568 
L 170.863943 111.841501 
L 177.33269 118.185683 
L 183.801438 118.39574 
L 190.270186 116.94947 
L 196.738933 119.681411 
L 203.207681 120.119955 
L 209.676429 121.467228 
L 216.145176 126.60487 
L 222.613924 124.563818 
L 229.082672 134.12903 
L 235.551419 131.950281 
L 242.020167 128.486737 
L 248.488915 134.450878 
L 254.957662 138.907587 
L 261.42641 140.773398 
L 267.895158 139.273396 
L 274.363905 144.809017 
L 280.832653 145.671011 
L 287.301401 97.715047 
L 293.770149 114.403135 
L 300.238896 122.628159 
L 306.707644 137.8311 
L 313.176392 136.442235 
L 319.645139 134.12903 
L 326.113887 147.456827 
L 332.582635 151.305852 
L 339.051382 151.305852 
L 345.52013 159.169337 
L 351.988878 157.93988 
L 358.457625 161.092582 
L 364.926373 175.32157 
L 371.395121 183.929479 
L 377.863868 204.312376 
L 384.332616 216.514111 
L 390.801364 222.777814 
L 397.270111 234.718258 
" style="fill:none;stroke:#8c564b;stroke-linecap:square;stroke-width:1.5;"/>
   </g>
   <g id="line2d_63">
    <path clip-path="url(#p65476dceec)" d="M 282.541502 307.584 
L 282.541502 41.472 
" style="fill:none;stroke:#000000;stroke-dasharray:1.5,2.475;stroke-dashoffset:0;stroke-opacity:0.75;stroke-width:1.5;"/>
   </g>
   <g id="line2d_64">
    <path clip-path="url(#p65476dceec)" d="M 164.413668 307.584 
L 164.413668 41.472 
" style="fill:none;stroke:#000000;stroke-dasharray:1.5,2.475;stroke-dashoffset:0;stroke-opacity:0.75;stroke-width:1.5;"/>
   </g>
   <g id="patch_3">
    <path d="M 57.6 307.584 
L 57.6 41.472 
" style="fill:none;stroke:#000000;stroke-linecap:square;stroke-linejoin:miter;stroke-width:0.8;"/>
   </g>
   <g id="patch_4">
    <path d="M 414.72 307.584 
L 414.72 41.472 
" style="fill:none;stroke:#000000;stroke-linecap:square;stroke-linejoin:miter;stroke-width:0.8;"/>
   </g>
   <g id="patch_5">
    <path d="M 57.6 307.584 
L 414.72 307.584 
" style="fill:none;stroke:#000000;stroke-linecap:square;stroke-linejoin:miter;stroke-width:0.8;"/>
   </g>
   <g id="patch_6">
    <path d="M 57.6 41.472 
L 414.72 41.472 
" style="fill:none;stroke:#000000;stroke-linecap:square;stroke-linejoin:miter;stroke-width:0.8;"/>
   </g>
   <g id="text_14">
    <!-- Particle location histogram -->
    <g transform="translate(155.955938 35.472)scale(0.12 -0.12)">
     <defs>
      <path d="M 19.671875 64.796875 
L 19.671875 37.40625 
L 32.078125 37.40625 
Q 38.96875 37.40625 42.71875 40.96875 
Q 46.484375 44.53125 46.484375 51.125 
Q 46.484375 57.671875 42.71875 61.234375 
Q 38.96875 64.796875 32.078125 64.796875 
z
M 9.8125 72.90625 
L 32.078125 72.90625 
Q 44.34375 72.90625 50.609375 67.359375 
Q 56.890625 61.8125 56.890625 51.125 
Q 56.890625 40.328125 50.609375 34.8125 
Q 44.34375 29.296875 32.078125 29.296875 
L 19.671875 29.296875 
L 19.671875 0 
L 9.8125 0 
z
" id="DejaVuSans-80"/>
     </defs>
     <use xlink:href="#DejaVuSans-80"/>
     <use x="55.802734" xlink:href="#DejaVuSans-97"/>
     <use x="117.082031" xlink:href="#DejaVuSans-114"/>
     <use x="158.195312" xlink:href="#DejaVuSans-116"/>
     <use x="197.404297" xlink:href="#DejaVuSans-105"/>
     <use x="225.1875" xlink:href="#DejaVuSans-99"/>
     <use x="280.167969" xlink:href="#DejaVuSans-108"/>
     <use x="307.951172" xlink:href="#DejaVuSans-101"/>
     <use x="369.474609" xlink:href="#DejaVuSans-32"/>
     <use x="401.261719" xlink:href="#DejaVuSans-108"/>
     <use x="429.044922" xlink:href="#DejaVuSans-111"/>
     <use x="490.226562" xlink:href="#DejaVuSans-99"/>
     <use x="545.207031" xlink:href="#DejaVuSans-97"/>
     <use x="606.486328" xlink:href="#DejaVuSans-116"/>
     <use x="645.695312" xlink:href="#DejaVuSans-105"/>
     <use x="673.478516" xlink:href="#DejaVuSans-111"/>
     <use x="734.660156" xlink:href="#DejaVuSans-110"/>
     <use x="798.039062" xlink:href="#DejaVuSans-32"/>
     <use x="829.826172" xlink:href="#DejaVuSans-104"/>
     <use x="893.205078" xlink:href="#DejaVuSans-105"/>
     <use x="920.988281" xlink:href="#DejaVuSans-115"/>
     <use x="973.087891" xlink:href="#DejaVuSans-116"/>
     <use x="1012.296875" xlink:href="#DejaVuSans-111"/>
     <use x="1073.478516" xlink:href="#DejaVuSans-103"/>
     <use x="1136.955078" xlink:href="#DejaVuSans-114"/>
     <use x="1178.068359" xlink:href="#DejaVuSans-97"/>
     <use x="1239.347656" xlink:href="#DejaVuSans-109"/>
    </g>
   </g>
   <g id="legend_1">
    <g id="patch_7">
     <path d="M 248.479375 302.584 
L 407.72 302.584 
Q 409.72 302.584 409.72 300.584 
L 409.72 213.51525 
Q 409.72 211.51525 407.72 211.51525 
L 248.479375 211.51525 
Q 246.479375 211.51525 246.479375 213.51525 
L 246.479375 300.584 
Q 246.479375 302.584 248.479375 302.584 
z
" style="fill:#ffffff;opacity:0.8;stroke:#cccccc;stroke-linejoin:miter;"/>
    </g>
    <g id="line2d_65">
     <path d="M 250.479375 219.613687 
L 270.479375 219.613687 
" style="fill:none;stroke:#1f77b4;stroke-linecap:square;stroke-width:1.5;"/>
    </g>
    <g id="line2d_66"/>
    <g id="text_15">
     <!-- t = 141.82 yr, N = 10000 -->
     <g transform="translate(278.479375 223.113687)scale(0.1 -0.1)">
      <defs>
       <path d="M 10.59375 45.40625 
L 73.1875 45.40625 
L 73.1875 37.203125 
L 10.59375 37.203125 
z
M 10.59375 25.484375 
L 73.1875 25.484375 
L 73.1875 17.1875 
L 10.59375 17.1875 
z
" id="DejaVuSans-61"/>
       <path d="M 37.796875 64.3125 
L 12.890625 25.390625 
L 37.796875 25.390625 
z
M 35.203125 72.90625 
L 47.609375 72.90625 
L 47.609375 25.390625 
L 58.015625 25.390625 
L 58.015625 17.1875 
L 47.609375 17.1875 
L 47.609375 0 
L 37.796875 0 
L 37.796875 17.1875 
L 4.890625 17.1875 
L 4.890625 26.703125 
z
" id="DejaVuSans-52"/>
       <path d="M 31.78125 34.625 
Q 24.75 34.625 20.71875 30.859375 
Q 16.703125 27.09375 16.703125 20.515625 
Q 16.703125 13.921875 20.71875 10.15625 
Q 24.75 6.390625 31.78125 6.390625 
Q 38.8125 6.390625 42.859375 10.171875 
Q 46.921875 13.96875 46.921875 20.515625 
Q 46.921875 27.09375 42.890625 30.859375 
Q 38.875 34.625 31.78125 34.625 
z
M 21.921875 38.8125 
Q 15.578125 40.375 12.03125 44.71875 
Q 8.5 49.078125 8.5 55.328125 
Q 8.5 64.0625 14.71875 69.140625 
Q 20.953125 74.21875 31.78125 74.21875 
Q 42.671875 74.21875 48.875 69.140625 
Q 55.078125 64.0625 55.078125 55.328125 
Q 55.078125 49.078125 51.53125 44.71875 
Q 48 40.375 41.703125 38.8125 
Q 48.828125 37.15625 52.796875 32.3125 
Q 56.78125 27.484375 56.78125 20.515625 
Q 56.78125 9.90625 50.3125 4.234375 
Q 43.84375 -1.421875 31.78125 -1.421875 
Q 19.734375 -1.421875 13.25 4.234375 
Q 6.78125 9.90625 6.78125 20.515625 
Q 6.78125 27.484375 10.78125 32.3125 
Q 14.796875 37.15625 21.921875 38.8125 
z
M 18.3125 54.390625 
Q 18.3125 48.734375 21.84375 45.5625 
Q 25.390625 42.390625 31.78125 42.390625 
Q 38.140625 42.390625 41.71875 45.5625 
Q 45.3125 48.734375 45.3125 54.390625 
Q 45.3125 60.0625 41.71875 63.234375 
Q 38.140625 66.40625 31.78125 66.40625 
Q 25.390625 66.40625 21.84375 63.234375 
Q 18.3125 60.0625 18.3125 54.390625 
z
" id="DejaVuSans-56"/>
       <path d="M 32.171875 -5.078125 
Q 28.375 -14.84375 24.75 -17.8125 
Q 21.140625 -20.796875 15.09375 -20.796875 
L 7.90625 -20.796875 
L 7.90625 -13.28125 
L 13.1875 -13.28125 
Q 16.890625 -13.28125 18.9375 -11.515625 
Q 21 -9.765625 23.484375 -3.21875 
L 25.09375 0.875 
L 2.984375 54.6875 
L 12.5 54.6875 
L 29.59375 11.921875 
L 46.6875 54.6875 
L 56.203125 54.6875 
z
" id="DejaVuSans-121"/>
       <path d="M 11.71875 12.40625 
L 22.015625 12.40625 
L 22.015625 4 
L 14.015625 -11.625 
L 7.71875 -11.625 
L 11.71875 4 
z
" id="DejaVuSans-44"/>
       <path d="M 9.8125 72.90625 
L 23.09375 72.90625 
L 55.421875 11.921875 
L 55.421875 72.90625 
L 64.984375 72.90625 
L 64.984375 0 
L 51.703125 0 
L 19.390625 60.984375 
L 19.390625 0 
L 9.8125 0 
z
" id="DejaVuSans-78"/>
      </defs>
      <use xlink:href="#DejaVuSans-116"/>
      <use x="39.208984" xlink:href="#DejaVuSans-32"/>
      <use x="70.996094" xlink:href="#DejaVuSans-61"/>
      <use x="154.785156" xlink:href="#DejaVuSans-32"/>
      <use x="186.572266" xlink:href="#DejaVuSans-49"/>
      <use x="250.195312" xlink:href="#DejaVuSans-52"/>
      <use x="313.818359" xlink:href="#DejaVuSans-49"/>
      <use x="377.441406" xlink:href="#DejaVuSans-46"/>
      <use x="409.228516" xlink:href="#DejaVuSans-56"/>
      <use x="472.851562" xlink:href="#DejaVuSans-50"/>
      <use x="536.474609" xlink:href="#DejaVuSans-32"/>
      <use x="568.261719" xlink:href="#DejaVuSans-121"/>
      <use x="627.441406" xlink:href="#DejaVuSans-114"/>
      <use x="668.554688" xlink:href="#DejaVuSans-44"/>
      <use x="700.341797" xlink:href="#DejaVuSans-32"/>
      <use x="732.128906" xlink:href="#DejaVuSans-78"/>
      <use x="806.933594" xlink:href="#DejaVuSans-32"/>
      <use x="838.720703" xlink:href="#DejaVuSans-61"/>
      <use x="922.509766" xlink:href="#DejaVuSans-32"/>
      <use x="954.296875" xlink:href="#DejaVuSans-49"/>
      <use x="1017.919922" xlink:href="#DejaVuSans-48"/>
      <use x="1081.542969" xlink:href="#DejaVuSans-48"/>
      <use x="1145.166016" xlink:href="#DejaVuSans-48"/>
      <use x="1208.789062" xlink:href="#DejaVuSans-48"/>
     </g>
    </g>
    <g id="line2d_67">
     <path d="M 250.479375 234.291812 
L 270.479375 234.291812 
" style="fill:none;stroke:#ff7f0e;stroke-linecap:square;stroke-width:1.5;"/>
    </g>
    <g id="line2d_68"/>
    <g id="text_16">
     <!-- t = 709.08 yr, N = 10000 -->
     <g transform="translate(278.479375 237.791812)scale(0.1 -0.1)">
      <defs>
       <path d="M 10.984375 1.515625 
L 10.984375 10.5 
Q 14.703125 8.734375 18.5 7.8125 
Q 22.3125 6.890625 25.984375 6.890625 
Q 35.75 6.890625 40.890625 13.453125 
Q 46.046875 20.015625 46.78125 33.40625 
Q 43.953125 29.203125 39.59375 26.953125 
Q 35.25 24.703125 29.984375 24.703125 
Q 19.046875 24.703125 12.671875 31.3125 
Q 6.296875 37.9375 6.296875 49.421875 
Q 6.296875 60.640625 12.9375 67.421875 
Q 19.578125 74.21875 30.609375 74.21875 
Q 43.265625 74.21875 49.921875 64.515625 
Q 56.59375 54.828125 56.59375 36.375 
Q 56.59375 19.140625 48.40625 8.859375 
Q 40.234375 -1.421875 26.421875 -1.421875 
Q 22.703125 -1.421875 18.890625 -0.6875 
Q 15.09375 0.046875 10.984375 1.515625 
z
M 30.609375 32.421875 
Q 37.25 32.421875 41.125 36.953125 
Q 45.015625 41.5 45.015625 49.421875 
Q 45.015625 57.28125 41.125 61.84375 
Q 37.25 66.40625 30.609375 66.40625 
Q 23.96875 66.40625 20.09375 61.84375 
Q 16.21875 57.28125 16.21875 49.421875 
Q 16.21875 41.5 20.09375 36.953125 
Q 23.96875 32.421875 30.609375 32.421875 
z
" id="DejaVuSans-57"/>
      </defs>
      <use xlink:href="#DejaVuSans-116"/>
      <use x="39.208984" xlink:href="#DejaVuSans-32"/>
      <use x="70.996094" xlink:href="#DejaVuSans-61"/>
      <use x="154.785156" xlink:href="#DejaVuSans-32"/>
      <use x="186.572266" xlink:href="#DejaVuSans-55"/>
      <use x="250.195312" xlink:href="#DejaVuSans-48"/>
      <use x="313.818359" xlink:href="#DejaVuSans-57"/>
      <use x="377.441406" xlink:href="#DejaVuSans-46"/>
      <use x="409.228516" xlink:href="#DejaVuSans-48"/>
      <use x="472.851562" xlink:href="#DejaVuSans-56"/>
      <use x="536.474609" xlink:href="#DejaVuSans-32"/>
      <use x="568.261719" xlink:href="#DejaVuSans-121"/>
      <use x="627.441406" xlink:href="#DejaVuSans-114"/>
      <use x="668.554688" xlink:href="#DejaVuSans-44"/>
      <use x="700.341797" xlink:href="#DejaVuSans-32"/>
      <use x="732.128906" xlink:href="#DejaVuSans-78"/>
      <use x="806.933594" xlink:href="#DejaVuSans-32"/>
      <use x="838.720703" xlink:href="#DejaVuSans-61"/>
      <use x="922.509766" xlink:href="#DejaVuSans-32"/>
      <use x="954.296875" xlink:href="#DejaVuSans-49"/>
      <use x="1017.919922" xlink:href="#DejaVuSans-48"/>
      <use x="1081.542969" xlink:href="#DejaVuSans-48"/>
      <use x="1145.166016" xlink:href="#DejaVuSans-48"/>
      <use x="1208.789062" xlink:href="#DejaVuSans-48"/>
     </g>
    </g>
    <g id="line2d_69">
     <path d="M 250.479375 248.969937 
L 270.479375 248.969937 
" style="fill:none;stroke:#2ca02c;stroke-linecap:square;stroke-width:1.5;"/>
    </g>
    <g id="line2d_70"/>
    <g id="text_17">
     <!-- t = 1418.16 yr, N = 9987 -->
     <g transform="translate(278.479375 252.469937)scale(0.1 -0.1)">
      <defs>
       <path d="M 33.015625 40.375 
Q 26.375 40.375 22.484375 35.828125 
Q 18.609375 31.296875 18.609375 23.390625 
Q 18.609375 15.53125 22.484375 10.953125 
Q 26.375 6.390625 33.015625 6.390625 
Q 39.65625 6.390625 43.53125 10.953125 
Q 47.40625 15.53125 47.40625 23.390625 
Q 47.40625 31.296875 43.53125 35.828125 
Q 39.65625 40.375 33.015625 40.375 
z
M 52.59375 71.296875 
L 52.59375 62.3125 
Q 48.875 64.0625 45.09375 64.984375 
Q 41.3125 65.921875 37.59375 65.921875 
Q 27.828125 65.921875 22.671875 59.328125 
Q 17.53125 52.734375 16.796875 39.40625 
Q 19.671875 43.65625 24.015625 45.921875 
Q 28.375 48.1875 33.59375 48.1875 
Q 44.578125 48.1875 50.953125 41.515625 
Q 57.328125 34.859375 57.328125 23.390625 
Q 57.328125 12.15625 50.6875 5.359375 
Q 44.046875 -1.421875 33.015625 -1.421875 
Q 20.359375 -1.421875 13.671875 8.265625 
Q 6.984375 17.96875 6.984375 36.375 
Q 6.984375 53.65625 15.1875 63.9375 
Q 23.390625 74.21875 37.203125 74.21875 
Q 40.921875 74.21875 44.703125 73.484375 
Q 48.484375 72.75 52.59375 71.296875 
z
" id="DejaVuSans-54"/>
      </defs>
      <use xlink:href="#DejaVuSans-116"/>
      <use x="39.208984" xlink:href="#DejaVuSans-32"/>
      <use x="70.996094" xlink:href="#DejaVuSans-61"/>
      <use x="154.785156" xlink:href="#DejaVuSans-32"/>
      <use x="186.572266" xlink:href="#DejaVuSans-49"/>
      <use x="250.195312" xlink:href="#DejaVuSans-52"/>
      <use x="313.818359" xlink:href="#DejaVuSans-49"/>
      <use x="377.441406" xlink:href="#DejaVuSans-56"/>
      <use x="441.064453" xlink:href="#DejaVuSans-46"/>
      <use x="472.851562" xlink:href="#DejaVuSans-49"/>
      <use x="536.474609" xlink:href="#DejaVuSans-54"/>
      <use x="600.097656" xlink:href="#DejaVuSans-32"/>
      <use x="631.884766" xlink:href="#DejaVuSans-121"/>
      <use x="691.064453" xlink:href="#DejaVuSans-114"/>
      <use x="732.177734" xlink:href="#DejaVuSans-44"/>
      <use x="763.964844" xlink:href="#DejaVuSans-32"/>
      <use x="795.751953" xlink:href="#DejaVuSans-78"/>
      <use x="870.556641" xlink:href="#DejaVuSans-32"/>
      <use x="902.34375" xlink:href="#DejaVuSans-61"/>
      <use x="986.132812" xlink:href="#DejaVuSans-32"/>
      <use x="1017.919922" xlink:href="#DejaVuSans-57"/>
      <use x="1081.542969" xlink:href="#DejaVuSans-57"/>
      <use x="1145.166016" xlink:href="#DejaVuSans-56"/>
      <use x="1208.789062" xlink:href="#DejaVuSans-55"/>
     </g>
    </g>
    <g id="line2d_71">
     <path d="M 250.479375 263.648062 
L 270.479375 263.648062 
" style="fill:none;stroke:#d62728;stroke-linecap:square;stroke-width:1.5;"/>
    </g>
    <g id="line2d_72"/>
    <g id="text_18">
     <!-- t = 4254.47 yr, N = 9203 -->
     <g transform="translate(278.479375 267.148062)scale(0.1 -0.1)">
      <defs>
       <path d="M 40.578125 39.3125 
Q 47.65625 37.796875 51.625 33 
Q 55.609375 28.21875 55.609375 21.1875 
Q 55.609375 10.40625 48.1875 4.484375 
Q 40.765625 -1.421875 27.09375 -1.421875 
Q 22.515625 -1.421875 17.65625 -0.515625 
Q 12.796875 0.390625 7.625 2.203125 
L 7.625 11.71875 
Q 11.71875 9.328125 16.59375 8.109375 
Q 21.484375 6.890625 26.8125 6.890625 
Q 36.078125 6.890625 40.9375 10.546875 
Q 45.796875 14.203125 45.796875 21.1875 
Q 45.796875 27.640625 41.28125 31.265625 
Q 36.765625 34.90625 28.71875 34.90625 
L 20.21875 34.90625 
L 20.21875 43.015625 
L 29.109375 43.015625 
Q 36.375 43.015625 40.234375 45.921875 
Q 44.09375 48.828125 44.09375 54.296875 
Q 44.09375 59.90625 40.109375 62.90625 
Q 36.140625 65.921875 28.71875 65.921875 
Q 24.65625 65.921875 20.015625 65.03125 
Q 15.375 64.15625 9.8125 62.3125 
L 9.8125 71.09375 
Q 15.4375 72.65625 20.34375 73.4375 
Q 25.25 74.21875 29.59375 74.21875 
Q 40.828125 74.21875 47.359375 69.109375 
Q 53.90625 64.015625 53.90625 55.328125 
Q 53.90625 49.265625 50.4375 45.09375 
Q 46.96875 40.921875 40.578125 39.3125 
z
" id="DejaVuSans-51"/>
      </defs>
      <use xlink:href="#DejaVuSans-116"/>
      <use x="39.208984" xlink:href="#DejaVuSans-32"/>
      <use x="70.996094" xlink:href="#DejaVuSans-61"/>
      <use x="154.785156" xlink:href="#DejaVuSans-32"/>
      <use x="186.572266" xlink:href="#DejaVuSans-52"/>
      <use x="250.195312" xlink:href="#DejaVuSans-50"/>
      <use x="313.818359" xlink:href="#DejaVuSans-53"/>
      <use x="377.441406" xlink:href="#DejaVuSans-52"/>
      <use x="441.064453" xlink:href="#DejaVuSans-46"/>
      <use x="472.851562" xlink:href="#DejaVuSans-52"/>
      <use x="536.474609" xlink:href="#DejaVuSans-55"/>
      <use x="600.097656" xlink:href="#DejaVuSans-32"/>
      <use x="631.884766" xlink:href="#DejaVuSans-121"/>
      <use x="691.064453" xlink:href="#DejaVuSans-114"/>
      <use x="732.177734" xlink:href="#DejaVuSans-44"/>
      <use x="763.964844" xlink:href="#DejaVuSans-32"/>
      <use x="795.751953" xlink:href="#DejaVuSans-78"/>
      <use x="870.556641" xlink:href="#DejaVuSans-32"/>
      <use x="902.34375" xlink:href="#DejaVuSans-61"/>
      <use x="986.132812" xlink:href="#DejaVuSans-32"/>
      <use x="1017.919922" xlink:href="#DejaVuSans-57"/>
      <use x="1081.542969" xlink:href="#DejaVuSans-50"/>
      <use x="1145.166016" xlink:href="#DejaVuSans-48"/>
      <use x="1208.789062" xlink:href="#DejaVuSans-51"/>
     </g>
    </g>
    <g id="line2d_73">
     <path d="M 250.479375 278.326188 
L 270.479375 278.326188 
" style="fill:none;stroke:#9467bd;stroke-linecap:square;stroke-width:1.5;"/>
    </g>
    <g id="line2d_74"/>
    <g id="text_19">
     <!-- t = 7090.78 yr, N = 7948 -->
     <g transform="translate(278.479375 281.826188)scale(0.1 -0.1)">
      <use xlink:href="#DejaVuSans-116"/>
      <use x="39.208984" xlink:href="#DejaVuSans-32"/>
      <use x="70.996094" xlink:href="#DejaVuSans-61"/>
      <use x="154.785156" xlink:href="#DejaVuSans-32"/>
      <use x="186.572266" xlink:href="#DejaVuSans-55"/>
      <use x="250.195312" xlink:href="#DejaVuSans-48"/>
      <use x="313.818359" xlink:href="#DejaVuSans-57"/>
      <use x="377.441406" xlink:href="#DejaVuSans-48"/>
      <use x="441.064453" xlink:href="#DejaVuSans-46"/>
      <use x="472.851562" xlink:href="#DejaVuSans-55"/>
      <use x="536.474609" xlink:href="#DejaVuSans-56"/>
      <use x="600.097656" xlink:href="#DejaVuSans-32"/>
      <use x="631.884766" xlink:href="#DejaVuSans-121"/>
      <use x="691.064453" xlink:href="#DejaVuSans-114"/>
      <use x="732.177734" xlink:href="#DejaVuSans-44"/>
      <use x="763.964844" xlink:href="#DejaVuSans-32"/>
      <use x="795.751953" xlink:href="#DejaVuSans-78"/>
      <use x="870.556641" xlink:href="#DejaVuSans-32"/>
      <use x="902.34375" xlink:href="#DejaVuSans-61"/>
      <use x="986.132812" xlink:href="#DejaVuSans-32"/>
      <use x="1017.919922" xlink:href="#DejaVuSans-55"/>
      <use x="1081.542969" xlink:href="#DejaVuSans-57"/>
      <use x="1145.166016" xlink:href="#DejaVuSans-52"/>
      <use x="1208.789062" xlink:href="#DejaVuSans-56"/>
     </g>
    </g>
    <g id="line2d_75">
     <path d="M 250.479375 293.004312 
L 270.479375 293.004312 
" style="fill:none;stroke:#8c564b;stroke-linecap:square;stroke-width:1.5;"/>
    </g>
    <g id="line2d_76"/>
    <g id="text_20">
     <!-- t = 9927.09 yr, N = 7089 -->
     <g transform="translate(278.479375 296.504312)scale(0.1 -0.1)">
      <use xlink:href="#DejaVuSans-116"/>
      <use x="39.208984" xlink:href="#DejaVuSans-32"/>
      <use x="70.996094" xlink:href="#DejaVuSans-61"/>
      <use x="154.785156" xlink:href="#DejaVuSans-32"/>
      <use x="186.572266" xlink:href="#DejaVuSans-57"/>
      <use x="250.195312" xlink:href="#DejaVuSans-57"/>
      <use x="313.818359" xlink:href="#DejaVuSans-50"/>
      <use x="377.441406" xlink:href="#DejaVuSans-55"/>
      <use x="441.064453" xlink:href="#DejaVuSans-46"/>
      <use x="472.851562" xlink:href="#DejaVuSans-48"/>
      <use x="536.474609" xlink:href="#DejaVuSans-57"/>
      <use x="600.097656" xlink:href="#DejaVuSans-32"/>
      <use x="631.884766" xlink:href="#DejaVuSans-121"/>
      <use x="691.064453" xlink:href="#DejaVuSans-114"/>
      <use x="732.177734" xlink:href="#DejaVuSans-44"/>
      <use x="763.964844" xlink:href="#DejaVuSans-32"/>
      <use x="795.751953" xlink:href="#DejaVuSans-78"/>
      <use x="870.556641" xlink:href="#DejaVuSans-32"/>
      <use x="902.34375" xlink:href="#DejaVuSans-61"/>
      <use x="986.132812" xlink:href="#DejaVuSans-32"/>
      <use x="1017.919922" xlink:href="#DejaVuSans-55"/>
      <use x="1081.542969" xlink:href="#DejaVuSans-48"/>
      <use x="1145.166016" xlink:href="#DejaVuSans-56"/>
      <use x="1208.789062" xlink:href="#DejaVuSans-57"/>
     </g>
    </g>
   </g>
  </g>
 </g>
 <defs>
  <clipPath id="p65476dceec">
   <rect height="266.112" width="357.12" x="57.6" y="41.472"/>
  </clipPath>
 </defs>
</svg>
