<?xml version="1.0" encoding="utf-8" standalone="no"?>
<!DOCTYPE svg PUBLIC "-//W3C//DTD SVG 1.1//EN"
  "http://www.w3.org/Graphics/SVG/1.1/DTD/svg11.dtd">
<!-- Created with matplotlib (https://matplotlib.org/) -->
<svg height="345.6pt" version="1.1" viewBox="0 0 460.8 345.6" width="460.8pt" xmlns="http://www.w3.org/2000/svg" xmlns:xlink="http://www.w3.org/1999/xlink">
 <metadata>
  <rdf:RDF xmlns:cc="http://creativecommons.org/ns#" xmlns:dc="http://purl.org/dc/elements/1.1/" xmlns:rdf="http://www.w3.org/1999/02/22-rdf-syntax-ns#">
   <cc:Work>
    <dc:type rdf:resource="http://purl.org/dc/dcmitype/StillImage"/>
    <dc:date>2020-11-22T22:26:00.440664</dc:date>
    <dc:format>image/svg+xml</dc:format>
    <dc:creator>
     <cc:Agent>
      <dc:title>Matplotlib v3.3.3, https://matplotlib.org/</dc:title>
     </cc:Agent>
    </dc:creator>
   </cc:Work>
  </rdf:RDF>
 </metadata>
 <defs>
  <style type="text/css">*{stroke-linecap:butt;stroke-linejoin:round;}</style>
 </defs>
 <g id="figure_1">
  <g id="patch_1">
   <path d="M 0 345.6 
L 460.8 345.6 
L 460.8 0 
L 0 0 
z
" style="fill:#ffffff;"/>
  </g>
  <g id="axes_1">
   <g id="patch_2">
    <path d="M 57.6 307.584 
L 414.72 307.584 
L 414.72 41.472 
L 57.6 41.472 
z
" style="fill:#ffffff;"/>
   </g>
   <g id="matplotlib.axis_1">
    <g id="xtick_1">
     <g id="line2d_1">
      <path clip-path="url(#p7acc16da70)" d="M 93.976213 307.584 
L 93.976213 41.472 
" style="fill:none;stroke:#b0b0b0;stroke-linecap:square;stroke-opacity:0.6;stroke-width:0.8;"/>
     </g>
     <g id="line2d_2">
      <defs>
       <path d="M 0 0 
L 0 3.5 
" id="m1251e2dd53" style="stroke:#000000;stroke-width:0.8;"/>
      </defs>
      <g>
       <use style="stroke:#000000;stroke-width:0.8;" x="93.976213" xlink:href="#m1251e2dd53" y="307.584"/>
      </g>
     </g>
     <g id="text_1">
      <!-- 2.5 -->
      <g transform="translate(86.02465 322.182437)scale(0.1 -0.1)">
       <defs>
        <path d="M 19.1875 8.296875 
L 53.609375 8.296875 
L 53.609375 0 
L 7.328125 0 
L 7.328125 8.296875 
Q 12.9375 14.109375 22.625 23.890625 
Q 32.328125 33.6875 34.8125 36.53125 
Q 39.546875 41.84375 41.421875 45.53125 
Q 43.3125 49.21875 43.3125 52.78125 
Q 43.3125 58.59375 39.234375 62.25 
Q 35.15625 65.921875 28.609375 65.921875 
Q 23.96875 65.921875 18.8125 64.3125 
Q 13.671875 62.703125 7.8125 59.421875 
L 7.8125 69.390625 
Q 13.765625 71.78125 18.9375 73 
Q 24.125 74.21875 28.421875 74.21875 
Q 39.75 74.21875 46.484375 68.546875 
Q 53.21875 62.890625 53.21875 53.421875 
Q 53.21875 48.921875 51.53125 44.890625 
Q 49.859375 40.875 45.40625 35.40625 
Q 44.1875 33.984375 37.640625 27.21875 
Q 31.109375 20.453125 19.1875 8.296875 
z
" id="DejaVuSans-50"/>
        <path d="M 10.6875 12.40625 
L 21 12.40625 
L 21 0 
L 10.6875 0 
z
" id="DejaVuSans-46"/>
        <path d="M 10.796875 72.90625 
L 49.515625 72.90625 
L 49.515625 64.59375 
L 19.828125 64.59375 
L 19.828125 46.734375 
Q 21.96875 47.46875 24.109375 47.828125 
Q 26.265625 48.1875 28.421875 48.1875 
Q 40.625 48.1875 47.75 41.5 
Q 54.890625 34.8125 54.890625 23.390625 
Q 54.890625 11.625 47.5625 5.09375 
Q 40.234375 -1.421875 26.90625 -1.421875 
Q 22.3125 -1.421875 17.546875 -0.640625 
Q 12.796875 0.140625 7.71875 1.703125 
L 7.71875 11.625 
Q 12.109375 9.234375 16.796875 8.0625 
Q 21.484375 6.890625 26.703125 6.890625 
Q 35.15625 6.890625 40.078125 11.328125 
Q 45.015625 15.765625 45.015625 23.390625 
Q 45.015625 31 40.078125 35.4375 
Q 35.15625 39.890625 26.703125 39.890625 
Q 22.75 39.890625 18.8125 39.015625 
Q 14.890625 38.140625 10.796875 36.28125 
z
" id="DejaVuSans-53"/>
       </defs>
       <use xlink:href="#DejaVuSans-50"/>
       <use x="63.623047" xlink:href="#DejaVuSans-46"/>
       <use x="95.410156" xlink:href="#DejaVuSans-53"/>
      </g>
     </g>
    </g>
    <g id="xtick_2">
     <g id="line2d_3">
      <path clip-path="url(#p7acc16da70)" d="M 137.979291 307.584 
L 137.979291 41.472 
" style="fill:none;stroke:#b0b0b0;stroke-linecap:square;stroke-opacity:0.6;stroke-width:0.8;"/>
     </g>
     <g id="line2d_4">
      <g>
       <use style="stroke:#000000;stroke-width:0.8;" x="137.979291" xlink:href="#m1251e2dd53" y="307.584"/>
      </g>
     </g>
     <g id="text_2">
      <!-- 5.0 -->
      <g transform="translate(130.027728 322.182437)scale(0.1 -0.1)">
       <defs>
        <path d="M 31.78125 66.40625 
Q 24.171875 66.40625 20.328125 58.90625 
Q 16.5 51.421875 16.5 36.375 
Q 16.5 21.390625 20.328125 13.890625 
Q 24.171875 6.390625 31.78125 6.390625 
Q 39.453125 6.390625 43.28125 13.890625 
Q 47.125 21.390625 47.125 36.375 
Q 47.125 51.421875 43.28125 58.90625 
Q 39.453125 66.40625 31.78125 66.40625 
z
M 31.78125 74.21875 
Q 44.046875 74.21875 50.515625 64.515625 
Q 56.984375 54.828125 56.984375 36.375 
Q 56.984375 17.96875 50.515625 8.265625 
Q 44.046875 -1.421875 31.78125 -1.421875 
Q 19.53125 -1.421875 13.0625 8.265625 
Q 6.59375 17.96875 6.59375 36.375 
Q 6.59375 54.828125 13.0625 64.515625 
Q 19.53125 74.21875 31.78125 74.21875 
z
" id="DejaVuSans-48"/>
       </defs>
       <use xlink:href="#DejaVuSans-53"/>
       <use x="63.623047" xlink:href="#DejaVuSans-46"/>
       <use x="95.410156" xlink:href="#DejaVuSans-48"/>
      </g>
     </g>
    </g>
    <g id="xtick_3">
     <g id="line2d_5">
      <path clip-path="url(#p7acc16da70)" d="M 181.982368 307.584 
L 181.982368 41.472 
" style="fill:none;stroke:#b0b0b0;stroke-linecap:square;stroke-opacity:0.6;stroke-width:0.8;"/>
     </g>
     <g id="line2d_6">
      <g>
       <use style="stroke:#000000;stroke-width:0.8;" x="181.982368" xlink:href="#m1251e2dd53" y="307.584"/>
      </g>
     </g>
     <g id="text_3">
      <!-- 7.5 -->
      <g transform="translate(174.030806 322.182437)scale(0.1 -0.1)">
       <defs>
        <path d="M 8.203125 72.90625 
L 55.078125 72.90625 
L 55.078125 68.703125 
L 28.609375 0 
L 18.3125 0 
L 43.21875 64.59375 
L 8.203125 64.59375 
z
" id="DejaVuSans-55"/>
       </defs>
       <use xlink:href="#DejaVuSans-55"/>
       <use x="63.623047" xlink:href="#DejaVuSans-46"/>
       <use x="95.410156" xlink:href="#DejaVuSans-53"/>
      </g>
     </g>
    </g>
    <g id="xtick_4">
     <g id="line2d_7">
      <path clip-path="url(#p7acc16da70)" d="M 225.985446 307.584 
L 225.985446 41.472 
" style="fill:none;stroke:#b0b0b0;stroke-linecap:square;stroke-opacity:0.6;stroke-width:0.8;"/>
     </g>
     <g id="line2d_8">
      <g>
       <use style="stroke:#000000;stroke-width:0.8;" x="225.985446" xlink:href="#m1251e2dd53" y="307.584"/>
      </g>
     </g>
     <g id="text_4">
      <!-- 10.0 -->
      <g transform="translate(214.852633 322.182437)scale(0.1 -0.1)">
       <defs>
        <path d="M 12.40625 8.296875 
L 28.515625 8.296875 
L 28.515625 63.921875 
L 10.984375 60.40625 
L 10.984375 69.390625 
L 28.421875 72.90625 
L 38.28125 72.90625 
L 38.28125 8.296875 
L 54.390625 8.296875 
L 54.390625 0 
L 12.40625 0 
z
" id="DejaVuSans-49"/>
       </defs>
       <use xlink:href="#DejaVuSans-49"/>
       <use x="63.623047" xlink:href="#DejaVuSans-48"/>
       <use x="127.246094" xlink:href="#DejaVuSans-46"/>
       <use x="159.033203" xlink:href="#DejaVuSans-48"/>
      </g>
     </g>
    </g>
    <g id="xtick_5">
     <g id="line2d_9">
      <path clip-path="url(#p7acc16da70)" d="M 269.988523 307.584 
L 269.988523 41.472 
" style="fill:none;stroke:#b0b0b0;stroke-linecap:square;stroke-opacity:0.6;stroke-width:0.8;"/>
     </g>
     <g id="line2d_10">
      <g>
       <use style="stroke:#000000;stroke-width:0.8;" x="269.988523" xlink:href="#m1251e2dd53" y="307.584"/>
      </g>
     </g>
     <g id="text_5">
      <!-- 12.5 -->
      <g transform="translate(258.855711 322.182437)scale(0.1 -0.1)">
       <use xlink:href="#DejaVuSans-49"/>
       <use x="63.623047" xlink:href="#DejaVuSans-50"/>
       <use x="127.246094" xlink:href="#DejaVuSans-46"/>
       <use x="159.033203" xlink:href="#DejaVuSans-53"/>
      </g>
     </g>
    </g>
    <g id="xtick_6">
     <g id="line2d_11">
      <path clip-path="url(#p7acc16da70)" d="M 313.991601 307.584 
L 313.991601 41.472 
" style="fill:none;stroke:#b0b0b0;stroke-linecap:square;stroke-opacity:0.6;stroke-width:0.8;"/>
     </g>
     <g id="line2d_12">
      <g>
       <use style="stroke:#000000;stroke-width:0.8;" x="313.991601" xlink:href="#m1251e2dd53" y="307.584"/>
      </g>
     </g>
     <g id="text_6">
      <!-- 15.0 -->
      <g transform="translate(302.858788 322.182437)scale(0.1 -0.1)">
       <use xlink:href="#DejaVuSans-49"/>
       <use x="63.623047" xlink:href="#DejaVuSans-53"/>
       <use x="127.246094" xlink:href="#DejaVuSans-46"/>
       <use x="159.033203" xlink:href="#DejaVuSans-48"/>
      </g>
     </g>
    </g>
    <g id="xtick_7">
     <g id="line2d_13">
      <path clip-path="url(#p7acc16da70)" d="M 357.994679 307.584 
L 357.994679 41.472 
" style="fill:none;stroke:#b0b0b0;stroke-linecap:square;stroke-opacity:0.6;stroke-width:0.8;"/>
     </g>
     <g id="line2d_14">
      <g>
       <use style="stroke:#000000;stroke-width:0.8;" x="357.994679" xlink:href="#m1251e2dd53" y="307.584"/>
      </g>
     </g>
     <g id="text_7">
      <!-- 17.5 -->
      <g transform="translate(346.861866 322.182437)scale(0.1 -0.1)">
       <use xlink:href="#DejaVuSans-49"/>
       <use x="63.623047" xlink:href="#DejaVuSans-55"/>
       <use x="127.246094" xlink:href="#DejaVuSans-46"/>
       <use x="159.033203" xlink:href="#DejaVuSans-53"/>
      </g>
     </g>
    </g>
    <g id="xtick_8">
     <g id="line2d_15">
      <path clip-path="url(#p7acc16da70)" d="M 401.997756 307.584 
L 401.997756 41.472 
" style="fill:none;stroke:#b0b0b0;stroke-linecap:square;stroke-opacity:0.6;stroke-width:0.8;"/>
     </g>
     <g id="line2d_16">
      <g>
       <use style="stroke:#000000;stroke-width:0.8;" x="401.997756" xlink:href="#m1251e2dd53" y="307.584"/>
      </g>
     </g>
     <g id="text_8">
      <!-- 20.0 -->
      <g transform="translate(390.864944 322.182437)scale(0.1 -0.1)">
       <use xlink:href="#DejaVuSans-50"/>
       <use x="63.623047" xlink:href="#DejaVuSans-48"/>
       <use x="127.246094" xlink:href="#DejaVuSans-46"/>
       <use x="159.033203" xlink:href="#DejaVuSans-48"/>
      </g>
     </g>
    </g>
    <g id="text_9">
     <!-- $r$ [au] -->
     <g transform="translate(222.36 335.860562)scale(0.1 -0.1)">
      <defs>
       <path d="M 44.578125 46.390625 
Q 43.21875 47.125 41.453125 47.515625 
Q 39.703125 47.90625 37.703125 47.90625 
Q 30.515625 47.90625 25.140625 42.453125 
Q 19.78125 37.015625 18.015625 27.875 
L 12.5 0 
L 3.515625 0 
L 14.203125 54.6875 
L 23.1875 54.6875 
L 21.484375 46.1875 
Q 25.046875 50.921875 30 53.453125 
Q 34.96875 56 40.578125 56 
Q 42.046875 56 43.453125 55.828125 
Q 44.875 55.671875 46.296875 55.28125 
z
" id="DejaVuSans-Oblique-114"/>
       <path id="DejaVuSans-32"/>
       <path d="M 8.59375 75.984375 
L 29.296875 75.984375 
L 29.296875 69 
L 17.578125 69 
L 17.578125 -6.203125 
L 29.296875 -6.203125 
L 29.296875 -13.1875 
L 8.59375 -13.1875 
z
" id="DejaVuSans-91"/>
       <path d="M 34.28125 27.484375 
Q 23.390625 27.484375 19.1875 25 
Q 14.984375 22.515625 14.984375 16.5 
Q 14.984375 11.71875 18.140625 8.90625 
Q 21.296875 6.109375 26.703125 6.109375 
Q 34.1875 6.109375 38.703125 11.40625 
Q 43.21875 16.703125 43.21875 25.484375 
L 43.21875 27.484375 
z
M 52.203125 31.203125 
L 52.203125 0 
L 43.21875 0 
L 43.21875 8.296875 
Q 40.140625 3.328125 35.546875 0.953125 
Q 30.953125 -1.421875 24.3125 -1.421875 
Q 15.921875 -1.421875 10.953125 3.296875 
Q 6 8.015625 6 15.921875 
Q 6 25.140625 12.171875 29.828125 
Q 18.359375 34.515625 30.609375 34.515625 
L 43.21875 34.515625 
L 43.21875 35.40625 
Q 43.21875 41.609375 39.140625 45 
Q 35.0625 48.390625 27.6875 48.390625 
Q 23 48.390625 18.546875 47.265625 
Q 14.109375 46.140625 10.015625 43.890625 
L 10.015625 52.203125 
Q 14.9375 54.109375 19.578125 55.046875 
Q 24.21875 56 28.609375 56 
Q 40.484375 56 46.34375 49.84375 
Q 52.203125 43.703125 52.203125 31.203125 
z
" id="DejaVuSans-97"/>
       <path d="M 8.5 21.578125 
L 8.5 54.6875 
L 17.484375 54.6875 
L 17.484375 21.921875 
Q 17.484375 14.15625 20.5 10.265625 
Q 23.53125 6.390625 29.59375 6.390625 
Q 36.859375 6.390625 41.078125 11.03125 
Q 45.3125 15.671875 45.3125 23.6875 
L 45.3125 54.6875 
L 54.296875 54.6875 
L 54.296875 0 
L 45.3125 0 
L 45.3125 8.40625 
Q 42.046875 3.421875 37.71875 1 
Q 33.40625 -1.421875 27.6875 -1.421875 
Q 18.265625 -1.421875 13.375 4.4375 
Q 8.5 10.296875 8.5 21.578125 
z
M 31.109375 56 
z
" id="DejaVuSans-117"/>
       <path d="M 30.421875 75.984375 
L 30.421875 -13.1875 
L 9.71875 -13.1875 
L 9.71875 -6.203125 
L 21.390625 -6.203125 
L 21.390625 69 
L 9.71875 69 
L 9.71875 75.984375 
z
" id="DejaVuSans-93"/>
      </defs>
      <use transform="translate(0 0.015625)" xlink:href="#DejaVuSans-Oblique-114"/>
      <use transform="translate(41.113281 0.015625)" xlink:href="#DejaVuSans-32"/>
      <use transform="translate(72.900391 0.015625)" xlink:href="#DejaVuSans-91"/>
      <use transform="translate(111.914062 0.015625)" xlink:href="#DejaVuSans-97"/>
      <use transform="translate(173.193359 0.015625)" xlink:href="#DejaVuSans-117"/>
      <use transform="translate(236.572266 0.015625)" xlink:href="#DejaVuSans-93"/>
     </g>
    </g>
   </g>
   <g id="matplotlib.axis_2">
    <g id="ytick_1">
     <g id="line2d_17">
      <path clip-path="url(#p7acc16da70)" d="M 57.6 225.533905 
L 414.72 225.533905 
" style="fill:none;stroke:#b0b0b0;stroke-linecap:square;stroke-opacity:0.6;stroke-width:0.8;"/>
     </g>
     <g id="line2d_18">
      <defs>
       <path d="M 0 0 
L -3.5 0 
" id="mdd9edd876b" style="stroke:#000000;stroke-width:0.8;"/>
      </defs>
      <g>
       <use style="stroke:#000000;stroke-width:0.8;" x="57.6" xlink:href="#mdd9edd876b" y="225.533905"/>
      </g>
     </g>
     <g id="text_10">
      <!-- $\mathdefault{10^{-2}}$ -->
      <g transform="translate(27.1 229.333123)scale(0.1 -0.1)">
       <defs>
        <path d="M 10.59375 35.5 
L 73.1875 35.5 
L 73.1875 27.203125 
L 10.59375 27.203125 
z
" id="DejaVuSans-8722"/>
       </defs>
       <use transform="translate(0 0.765625)" xlink:href="#DejaVuSans-49"/>
       <use transform="translate(63.623047 0.765625)" xlink:href="#DejaVuSans-48"/>
       <use transform="translate(128.203125 39.046875)scale(0.7)" xlink:href="#DejaVuSans-8722"/>
       <use transform="translate(186.855469 39.046875)scale(0.7)" xlink:href="#DejaVuSans-50"/>
      </g>
     </g>
    </g>
    <g id="ytick_2">
     <g id="line2d_19">
      <path clip-path="url(#p7acc16da70)" d="M 57.6 139.550952 
L 414.72 139.550952 
" style="fill:none;stroke:#b0b0b0;stroke-linecap:square;stroke-opacity:0.6;stroke-width:0.8;"/>
     </g>
     <g id="line2d_20">
      <g>
       <use style="stroke:#000000;stroke-width:0.8;" x="57.6" xlink:href="#mdd9edd876b" y="139.550952"/>
      </g>
     </g>
     <g id="text_11">
      <!-- $\mathdefault{10^{-1}}$ -->
      <g transform="translate(27.1 143.350171)scale(0.1 -0.1)">
       <use transform="translate(0 0.684375)" xlink:href="#DejaVuSans-49"/>
       <use transform="translate(63.623047 0.684375)" xlink:href="#DejaVuSans-48"/>
       <use transform="translate(128.203125 38.965625)scale(0.7)" xlink:href="#DejaVuSans-8722"/>
       <use transform="translate(186.855469 38.965625)scale(0.7)" xlink:href="#DejaVuSans-49"/>
      </g>
     </g>
    </g>
    <g id="ytick_3">
     <g id="line2d_21">
      <path clip-path="url(#p7acc16da70)" d="M 57.6 53.568 
L 414.72 53.568 
" style="fill:none;stroke:#b0b0b0;stroke-linecap:square;stroke-opacity:0.6;stroke-width:0.8;"/>
     </g>
     <g id="line2d_22">
      <g>
       <use style="stroke:#000000;stroke-width:0.8;" x="57.6" xlink:href="#mdd9edd876b" y="53.568"/>
      </g>
     </g>
     <g id="text_12">
      <!-- $\mathdefault{10^{0}}$ -->
      <g transform="translate(33 57.367219)scale(0.1 -0.1)">
       <use transform="translate(0 0.765625)" xlink:href="#DejaVuSans-49"/>
       <use transform="translate(63.623047 0.765625)" xlink:href="#DejaVuSans-48"/>
       <use transform="translate(128.203125 39.046875)scale(0.7)" xlink:href="#DejaVuSans-48"/>
      </g>
     </g>
    </g>
    <g id="ytick_4">
     <g id="line2d_23">
      <defs>
       <path d="M 0 0 
L -2 0 
" id="m97ebf7c053" style="stroke:#000000;stroke-width:0.6;"/>
      </defs>
      <g>
       <use style="stroke:#000000;stroke-width:0.6;" x="57.6" xlink:href="#m97ebf7c053" y="285.633409"/>
      </g>
     </g>
    </g>
    <g id="ytick_5">
     <g id="line2d_24">
      <g>
       <use style="stroke:#000000;stroke-width:0.6;" x="57.6" xlink:href="#m97ebf7c053" y="270.492563"/>
      </g>
     </g>
    </g>
    <g id="ytick_6">
     <g id="line2d_25">
      <g>
       <use style="stroke:#000000;stroke-width:0.6;" x="57.6" xlink:href="#m97ebf7c053" y="259.749961"/>
      </g>
     </g>
    </g>
    <g id="ytick_7">
     <g id="line2d_26">
      <g>
       <use style="stroke:#000000;stroke-width:0.6;" x="57.6" xlink:href="#m97ebf7c053" y="251.417352"/>
      </g>
     </g>
    </g>
    <g id="ytick_8">
     <g id="line2d_27">
      <g>
       <use style="stroke:#000000;stroke-width:0.6;" x="57.6" xlink:href="#m97ebf7c053" y="244.609115"/>
      </g>
     </g>
    </g>
    <g id="ytick_9">
     <g id="line2d_28">
      <g>
       <use style="stroke:#000000;stroke-width:0.6;" x="57.6" xlink:href="#m97ebf7c053" y="238.852832"/>
      </g>
     </g>
    </g>
    <g id="ytick_10">
     <g id="line2d_29">
      <g>
       <use style="stroke:#000000;stroke-width:0.6;" x="57.6" xlink:href="#m97ebf7c053" y="233.866514"/>
      </g>
     </g>
    </g>
    <g id="ytick_11">
     <g id="line2d_30">
      <g>
       <use style="stroke:#000000;stroke-width:0.6;" x="57.6" xlink:href="#m97ebf7c053" y="229.468269"/>
      </g>
     </g>
    </g>
    <g id="ytick_12">
     <g id="line2d_31">
      <g>
       <use style="stroke:#000000;stroke-width:0.6;" x="57.6" xlink:href="#m97ebf7c053" y="199.650457"/>
      </g>
     </g>
    </g>
    <g id="ytick_13">
     <g id="line2d_32">
      <g>
       <use style="stroke:#000000;stroke-width:0.6;" x="57.6" xlink:href="#m97ebf7c053" y="184.509611"/>
      </g>
     </g>
    </g>
    <g id="ytick_14">
     <g id="line2d_33">
      <g>
       <use style="stroke:#000000;stroke-width:0.6;" x="57.6" xlink:href="#m97ebf7c053" y="173.767009"/>
      </g>
     </g>
    </g>
    <g id="ytick_15">
     <g id="line2d_34">
      <g>
       <use style="stroke:#000000;stroke-width:0.6;" x="57.6" xlink:href="#m97ebf7c053" y="165.4344"/>
      </g>
     </g>
    </g>
    <g id="ytick_16">
     <g id="line2d_35">
      <g>
       <use style="stroke:#000000;stroke-width:0.6;" x="57.6" xlink:href="#m97ebf7c053" y="158.626163"/>
      </g>
     </g>
    </g>
    <g id="ytick_17">
     <g id="line2d_36">
      <g>
       <use style="stroke:#000000;stroke-width:0.6;" x="57.6" xlink:href="#m97ebf7c053" y="152.86988"/>
      </g>
     </g>
    </g>
    <g id="ytick_18">
     <g id="line2d_37">
      <g>
       <use style="stroke:#000000;stroke-width:0.6;" x="57.6" xlink:href="#m97ebf7c053" y="147.883561"/>
      </g>
     </g>
    </g>
    <g id="ytick_19">
     <g id="line2d_38">
      <g>
       <use style="stroke:#000000;stroke-width:0.6;" x="57.6" xlink:href="#m97ebf7c053" y="143.485316"/>
      </g>
     </g>
    </g>
    <g id="ytick_20">
     <g id="line2d_39">
      <g>
       <use style="stroke:#000000;stroke-width:0.6;" x="57.6" xlink:href="#m97ebf7c053" y="113.667505"/>
      </g>
     </g>
    </g>
    <g id="ytick_21">
     <g id="line2d_40">
      <g>
       <use style="stroke:#000000;stroke-width:0.6;" x="57.6" xlink:href="#m97ebf7c053" y="98.526658"/>
      </g>
     </g>
    </g>
    <g id="ytick_22">
     <g id="line2d_41">
      <g>
       <use style="stroke:#000000;stroke-width:0.6;" x="57.6" xlink:href="#m97ebf7c053" y="87.784057"/>
      </g>
     </g>
    </g>
    <g id="ytick_23">
     <g id="line2d_42">
      <g>
       <use style="stroke:#000000;stroke-width:0.6;" x="57.6" xlink:href="#m97ebf7c053" y="79.451448"/>
      </g>
     </g>
    </g>
    <g id="ytick_24">
     <g id="line2d_43">
      <g>
       <use style="stroke:#000000;stroke-width:0.6;" x="57.6" xlink:href="#m97ebf7c053" y="72.64321"/>
      </g>
     </g>
    </g>
    <g id="ytick_25">
     <g id="line2d_44">
      <g>
       <use style="stroke:#000000;stroke-width:0.6;" x="57.6" xlink:href="#m97ebf7c053" y="66.886928"/>
      </g>
     </g>
    </g>
    <g id="ytick_26">
     <g id="line2d_45">
      <g>
       <use style="stroke:#000000;stroke-width:0.6;" x="57.6" xlink:href="#m97ebf7c053" y="61.900609"/>
      </g>
     </g>
    </g>
    <g id="ytick_27">
     <g id="line2d_46">
      <g>
       <use style="stroke:#000000;stroke-width:0.6;" x="57.6" xlink:href="#m97ebf7c053" y="57.502364"/>
      </g>
     </g>
    </g>
    <g id="text_13">
     <!-- particle histogram normalized -->
     <g transform="translate(21.020312 249.693625)rotate(-90)scale(0.1 -0.1)">
      <defs>
       <path d="M 18.109375 8.203125 
L 18.109375 -20.796875 
L 9.078125 -20.796875 
L 9.078125 54.6875 
L 18.109375 54.6875 
L 18.109375 46.390625 
Q 20.953125 51.265625 25.265625 53.625 
Q 29.59375 56 35.59375 56 
Q 45.5625 56 51.78125 48.09375 
Q 58.015625 40.1875 58.015625 27.296875 
Q 58.015625 14.40625 51.78125 6.484375 
Q 45.5625 -1.421875 35.59375 -1.421875 
Q 29.59375 -1.421875 25.265625 0.953125 
Q 20.953125 3.328125 18.109375 8.203125 
z
M 48.6875 27.296875 
Q 48.6875 37.203125 44.609375 42.84375 
Q 40.53125 48.484375 33.40625 48.484375 
Q 26.265625 48.484375 22.1875 42.84375 
Q 18.109375 37.203125 18.109375 27.296875 
Q 18.109375 17.390625 22.1875 11.75 
Q 26.265625 6.109375 33.40625 6.109375 
Q 40.53125 6.109375 44.609375 11.75 
Q 48.6875 17.390625 48.6875 27.296875 
z
" id="DejaVuSans-112"/>
       <path d="M 41.109375 46.296875 
Q 39.59375 47.171875 37.8125 47.578125 
Q 36.03125 48 33.890625 48 
Q 26.265625 48 22.1875 43.046875 
Q 18.109375 38.09375 18.109375 28.8125 
L 18.109375 0 
L 9.078125 0 
L 9.078125 54.6875 
L 18.109375 54.6875 
L 18.109375 46.1875 
Q 20.953125 51.171875 25.484375 53.578125 
Q 30.03125 56 36.53125 56 
Q 37.453125 56 38.578125 55.875 
Q 39.703125 55.765625 41.0625 55.515625 
z
" id="DejaVuSans-114"/>
       <path d="M 18.3125 70.21875 
L 18.3125 54.6875 
L 36.8125 54.6875 
L 36.8125 47.703125 
L 18.3125 47.703125 
L 18.3125 18.015625 
Q 18.3125 11.328125 20.140625 9.421875 
Q 21.96875 7.515625 27.59375 7.515625 
L 36.8125 7.515625 
L 36.8125 0 
L 27.59375 0 
Q 17.1875 0 13.234375 3.875 
Q 9.28125 7.765625 9.28125 18.015625 
L 9.28125 47.703125 
L 2.6875 47.703125 
L 2.6875 54.6875 
L 9.28125 54.6875 
L 9.28125 70.21875 
z
" id="DejaVuSans-116"/>
       <path d="M 9.421875 54.6875 
L 18.40625 54.6875 
L 18.40625 0 
L 9.421875 0 
z
M 9.421875 75.984375 
L 18.40625 75.984375 
L 18.40625 64.59375 
L 9.421875 64.59375 
z
" id="DejaVuSans-105"/>
       <path d="M 48.78125 52.59375 
L 48.78125 44.1875 
Q 44.96875 46.296875 41.140625 47.34375 
Q 37.3125 48.390625 33.40625 48.390625 
Q 24.65625 48.390625 19.8125 42.84375 
Q 14.984375 37.3125 14.984375 27.296875 
Q 14.984375 17.28125 19.8125 11.734375 
Q 24.65625 6.203125 33.40625 6.203125 
Q 37.3125 6.203125 41.140625 7.25 
Q 44.96875 8.296875 48.78125 10.40625 
L 48.78125 2.09375 
Q 45.015625 0.34375 40.984375 -0.53125 
Q 36.96875 -1.421875 32.421875 -1.421875 
Q 20.0625 -1.421875 12.78125 6.34375 
Q 5.515625 14.109375 5.515625 27.296875 
Q 5.515625 40.671875 12.859375 48.328125 
Q 20.21875 56 33.015625 56 
Q 37.15625 56 41.109375 55.140625 
Q 45.0625 54.296875 48.78125 52.59375 
z
" id="DejaVuSans-99"/>
       <path d="M 9.421875 75.984375 
L 18.40625 75.984375 
L 18.40625 0 
L 9.421875 0 
z
" id="DejaVuSans-108"/>
       <path d="M 56.203125 29.59375 
L 56.203125 25.203125 
L 14.890625 25.203125 
Q 15.484375 15.921875 20.484375 11.0625 
Q 25.484375 6.203125 34.421875 6.203125 
Q 39.59375 6.203125 44.453125 7.46875 
Q 49.3125 8.734375 54.109375 11.28125 
L 54.109375 2.78125 
Q 49.265625 0.734375 44.1875 -0.34375 
Q 39.109375 -1.421875 33.890625 -1.421875 
Q 20.796875 -1.421875 13.15625 6.1875 
Q 5.515625 13.8125 5.515625 26.8125 
Q 5.515625 40.234375 12.765625 48.109375 
Q 20.015625 56 32.328125 56 
Q 43.359375 56 49.78125 48.890625 
Q 56.203125 41.796875 56.203125 29.59375 
z
M 47.21875 32.234375 
Q 47.125 39.59375 43.09375 43.984375 
Q 39.0625 48.390625 32.421875 48.390625 
Q 24.90625 48.390625 20.390625 44.140625 
Q 15.875 39.890625 15.1875 32.171875 
z
" id="DejaVuSans-101"/>
       <path d="M 54.890625 33.015625 
L 54.890625 0 
L 45.90625 0 
L 45.90625 32.71875 
Q 45.90625 40.484375 42.875 44.328125 
Q 39.84375 48.1875 33.796875 48.1875 
Q 26.515625 48.1875 22.3125 43.546875 
Q 18.109375 38.921875 18.109375 30.90625 
L 18.109375 0 
L 9.078125 0 
L 9.078125 75.984375 
L 18.109375 75.984375 
L 18.109375 46.1875 
Q 21.34375 51.125 25.703125 53.5625 
Q 30.078125 56 35.796875 56 
Q 45.21875 56 50.046875 50.171875 
Q 54.890625 44.34375 54.890625 33.015625 
z
" id="DejaVuSans-104"/>
       <path d="M 44.28125 53.078125 
L 44.28125 44.578125 
Q 40.484375 46.53125 36.375 47.5 
Q 32.28125 48.484375 27.875 48.484375 
Q 21.1875 48.484375 17.84375 46.4375 
Q 14.5 44.390625 14.5 40.28125 
Q 14.5 37.15625 16.890625 35.375 
Q 19.28125 33.59375 26.515625 31.984375 
L 29.59375 31.296875 
Q 39.15625 29.25 43.1875 25.515625 
Q 47.21875 21.78125 47.21875 15.09375 
Q 47.21875 7.46875 41.1875 3.015625 
Q 35.15625 -1.421875 24.609375 -1.421875 
Q 20.21875 -1.421875 15.453125 -0.5625 
Q 10.6875 0.296875 5.421875 2 
L 5.421875 11.28125 
Q 10.40625 8.6875 15.234375 7.390625 
Q 20.0625 6.109375 24.8125 6.109375 
Q 31.15625 6.109375 34.5625 8.28125 
Q 37.984375 10.453125 37.984375 14.40625 
Q 37.984375 18.0625 35.515625 20.015625 
Q 33.0625 21.96875 24.703125 23.78125 
L 21.578125 24.515625 
Q 13.234375 26.265625 9.515625 29.90625 
Q 5.8125 33.546875 5.8125 39.890625 
Q 5.8125 47.609375 11.28125 51.796875 
Q 16.75 56 26.8125 56 
Q 31.78125 56 36.171875 55.265625 
Q 40.578125 54.546875 44.28125 53.078125 
z
" id="DejaVuSans-115"/>
       <path d="M 30.609375 48.390625 
Q 23.390625 48.390625 19.1875 42.75 
Q 14.984375 37.109375 14.984375 27.296875 
Q 14.984375 17.484375 19.15625 11.84375 
Q 23.34375 6.203125 30.609375 6.203125 
Q 37.796875 6.203125 41.984375 11.859375 
Q 46.1875 17.53125 46.1875 27.296875 
Q 46.1875 37.015625 41.984375 42.703125 
Q 37.796875 48.390625 30.609375 48.390625 
z
M 30.609375 56 
Q 42.328125 56 49.015625 48.375 
Q 55.71875 40.765625 55.71875 27.296875 
Q 55.71875 13.875 49.015625 6.21875 
Q 42.328125 -1.421875 30.609375 -1.421875 
Q 18.84375 -1.421875 12.171875 6.21875 
Q 5.515625 13.875 5.515625 27.296875 
Q 5.515625 40.765625 12.171875 48.375 
Q 18.84375 56 30.609375 56 
z
" id="DejaVuSans-111"/>
       <path d="M 45.40625 27.984375 
Q 45.40625 37.75 41.375 43.109375 
Q 37.359375 48.484375 30.078125 48.484375 
Q 22.859375 48.484375 18.828125 43.109375 
Q 14.796875 37.75 14.796875 27.984375 
Q 14.796875 18.265625 18.828125 12.890625 
Q 22.859375 7.515625 30.078125 7.515625 
Q 37.359375 7.515625 41.375 12.890625 
Q 45.40625 18.265625 45.40625 27.984375 
z
M 54.390625 6.78125 
Q 54.390625 -7.171875 48.1875 -13.984375 
Q 42 -20.796875 29.203125 -20.796875 
Q 24.46875 -20.796875 20.265625 -20.09375 
Q 16.0625 -19.390625 12.109375 -17.921875 
L 12.109375 -9.1875 
Q 16.0625 -11.328125 19.921875 -12.34375 
Q 23.78125 -13.375 27.78125 -13.375 
Q 36.625 -13.375 41.015625 -8.765625 
Q 45.40625 -4.15625 45.40625 5.171875 
L 45.40625 9.625 
Q 42.625 4.78125 38.28125 2.390625 
Q 33.9375 0 27.875 0 
Q 17.828125 0 11.671875 7.65625 
Q 5.515625 15.328125 5.515625 27.984375 
Q 5.515625 40.671875 11.671875 48.328125 
Q 17.828125 56 27.875 56 
Q 33.9375 56 38.28125 53.609375 
Q 42.625 51.21875 45.40625 46.390625 
L 45.40625 54.6875 
L 54.390625 54.6875 
z
" id="DejaVuSans-103"/>
       <path d="M 52 44.1875 
Q 55.375 50.25 60.0625 53.125 
Q 64.75 56 71.09375 56 
Q 79.640625 56 84.28125 50.015625 
Q 88.921875 44.046875 88.921875 33.015625 
L 88.921875 0 
L 79.890625 0 
L 79.890625 32.71875 
Q 79.890625 40.578125 77.09375 44.375 
Q 74.3125 48.1875 68.609375 48.1875 
Q 61.625 48.1875 57.5625 43.546875 
Q 53.515625 38.921875 53.515625 30.90625 
L 53.515625 0 
L 44.484375 0 
L 44.484375 32.71875 
Q 44.484375 40.625 41.703125 44.40625 
Q 38.921875 48.1875 33.109375 48.1875 
Q 26.21875 48.1875 22.15625 43.53125 
Q 18.109375 38.875 18.109375 30.90625 
L 18.109375 0 
L 9.078125 0 
L 9.078125 54.6875 
L 18.109375 54.6875 
L 18.109375 46.1875 
Q 21.1875 51.21875 25.484375 53.609375 
Q 29.78125 56 35.6875 56 
Q 41.65625 56 45.828125 52.96875 
Q 50 49.953125 52 44.1875 
z
" id="DejaVuSans-109"/>
       <path d="M 54.890625 33.015625 
L 54.890625 0 
L 45.90625 0 
L 45.90625 32.71875 
Q 45.90625 40.484375 42.875 44.328125 
Q 39.84375 48.1875 33.796875 48.1875 
Q 26.515625 48.1875 22.3125 43.546875 
Q 18.109375 38.921875 18.109375 30.90625 
L 18.109375 0 
L 9.078125 0 
L 9.078125 54.6875 
L 18.109375 54.6875 
L 18.109375 46.1875 
Q 21.34375 51.125 25.703125 53.5625 
Q 30.078125 56 35.796875 56 
Q 45.21875 56 50.046875 50.171875 
Q 54.890625 44.34375 54.890625 33.015625 
z
" id="DejaVuSans-110"/>
       <path d="M 5.515625 54.6875 
L 48.1875 54.6875 
L 48.1875 46.484375 
L 14.40625 7.171875 
L 48.1875 7.171875 
L 48.1875 0 
L 4.296875 0 
L 4.296875 8.203125 
L 38.09375 47.515625 
L 5.515625 47.515625 
z
" id="DejaVuSans-122"/>
       <path d="M 45.40625 46.390625 
L 45.40625 75.984375 
L 54.390625 75.984375 
L 54.390625 0 
L 45.40625 0 
L 45.40625 8.203125 
Q 42.578125 3.328125 38.25 0.953125 
Q 33.9375 -1.421875 27.875 -1.421875 
Q 17.96875 -1.421875 11.734375 6.484375 
Q 5.515625 14.40625 5.515625 27.296875 
Q 5.515625 40.1875 11.734375 48.09375 
Q 17.96875 56 27.875 56 
Q 33.9375 56 38.25 53.625 
Q 42.578125 51.265625 45.40625 46.390625 
z
M 14.796875 27.296875 
Q 14.796875 17.390625 18.875 11.75 
Q 22.953125 6.109375 30.078125 6.109375 
Q 37.203125 6.109375 41.296875 11.75 
Q 45.40625 17.390625 45.40625 27.296875 
Q 45.40625 37.203125 41.296875 42.84375 
Q 37.203125 48.484375 30.078125 48.484375 
Q 22.953125 48.484375 18.875 42.84375 
Q 14.796875 37.203125 14.796875 27.296875 
z
" id="DejaVuSans-100"/>
      </defs>
      <use xlink:href="#DejaVuSans-112"/>
      <use x="63.476562" xlink:href="#DejaVuSans-97"/>
      <use x="124.755859" xlink:href="#DejaVuSans-114"/>
      <use x="165.869141" xlink:href="#DejaVuSans-116"/>
      <use x="205.078125" xlink:href="#DejaVuSans-105"/>
      <use x="232.861328" xlink:href="#DejaVuSans-99"/>
      <use x="287.841797" xlink:href="#DejaVuSans-108"/>
      <use x="315.625" xlink:href="#DejaVuSans-101"/>
      <use x="377.148438" xlink:href="#DejaVuSans-32"/>
      <use x="408.935547" xlink:href="#DejaVuSans-104"/>
      <use x="472.314453" xlink:href="#DejaVuSans-105"/>
      <use x="500.097656" xlink:href="#DejaVuSans-115"/>
      <use x="552.197266" xlink:href="#DejaVuSans-116"/>
      <use x="591.40625" xlink:href="#DejaVuSans-111"/>
      <use x="652.587891" xlink:href="#DejaVuSans-103"/>
      <use x="716.064453" xlink:href="#DejaVuSans-114"/>
      <use x="757.177734" xlink:href="#DejaVuSans-97"/>
      <use x="818.457031" xlink:href="#DejaVuSans-109"/>
      <use x="915.869141" xlink:href="#DejaVuSans-32"/>
      <use x="947.65625" xlink:href="#DejaVuSans-110"/>
      <use x="1011.035156" xlink:href="#DejaVuSans-111"/>
      <use x="1072.216797" xlink:href="#DejaVuSans-114"/>
      <use x="1111.580078" xlink:href="#DejaVuSans-109"/>
      <use x="1208.992188" xlink:href="#DejaVuSans-97"/>
      <use x="1270.271484" xlink:href="#DejaVuSans-108"/>
      <use x="1298.054688" xlink:href="#DejaVuSans-105"/>
      <use x="1325.837891" xlink:href="#DejaVuSans-122"/>
      <use x="1378.328125" xlink:href="#DejaVuSans-101"/>
      <use x="1439.851562" xlink:href="#DejaVuSans-100"/>
     </g>
    </g>
   </g>
   <g id="line2d_47">
    <path clip-path="url(#p7acc16da70)" d="M 180.959074 295.488 
L 183.00316 295.488 
L 185.047245 254.463706 
L 187.091331 295.488 
L 189.135416 222.823976 
L 191.179501 222.823976 
L 193.223587 191.954209 
L 195.267672 163.806921 
L 197.311758 172.415118 
L 199.355843 143.224916 
L 201.399929 131.854704 
L 203.444014 122.418313 
L 205.4881 109.905621 
L 207.532185 93.573815 
L 209.576271 84.282396 
L 211.620356 78.154919 
L 213.664442 74.364882 
L 215.708527 66.944333 
L 217.752613 64.253285 
L 219.796698 61.958014 
L 221.840784 57.559769 
L 223.884869 53.625405 
L 225.928955 53.568 
L 227.97304 55.692284 
L 230.017126 59.458365 
L 232.061211 55.089982 
L 234.105297 65.495542 
L 236.149382 61.176328 
L 238.193467 68.111363 
L 240.237553 76.63498 
L 242.281638 81.880565 
L 244.325724 91.935749 
L 246.369809 95.994972 
L 248.413895 109.905621 
L 250.45798 117.026345 
L 252.502066 128.295639 
L 254.546151 128.295639 
L 256.590237 150.159951 
L 258.634322 157.738152 
L 260.678408 178.40262 
L 262.722493 194.364201 
L 264.766579 209.505048 
L 266.810664 213.439412 
L 268.85475 202.69681 
L 270.898835 254.463706 
L 272.942921 269.604552 
L 274.987006 295.488 
L 274.988225 346.6 
M 279.073342 346.6 
L 279.075177 269.604552 
L 281.119263 295.488 
L 283.163348 254.463706 
" style="fill:none;stroke:#1f77b4;stroke-linecap:square;stroke-width:1.5;"/>
   </g>
   <g id="line2d_48">
    <path clip-path="url(#p7acc16da70)" d="M 288.293804 307.584 
L 288.293804 41.472 
" style="fill:none;stroke:#000000;stroke-dasharray:1.5,2.475;stroke-dashoffset:0;stroke-opacity:0.75;stroke-width:1.5;"/>
   </g>
   <g id="line2d_49">
    <path clip-path="url(#p7acc16da70)" d="M 176.173962 307.584 
L 176.173962 41.472 
" style="fill:none;stroke:#000000;stroke-dasharray:1.5,2.475;stroke-dashoffset:0;stroke-opacity:0.75;stroke-width:1.5;"/>
   </g>
   <g id="line2d_50">
    <path clip-path="url(#p7acc16da70)" d="M 139.460027 253.357629 
L 139.464872 346.6 
M 148.369894 346.6 
L 148.374739 253.357629 
L 152.832094 221.717899 
L 157.28945 190.848132 
L 161.746806 178.956458 
L 166.204162 161.618394 
L 170.661518 144.067555 
L 175.118874 127.616332 
L 179.57623 109.321817 
L 184.033585 103.490475 
L 188.490941 90.03682 
L 192.948297 81.641504 
L 197.405653 71.786528 
L 201.863009 68.209968 
L 206.320365 60.423536 
L 210.777721 60.565791 
L 215.235077 55.198383 
L 219.692432 55.508277 
L 224.149788 53.568 
L 228.607144 55.695454 
L 233.0645 55.198383 
L 237.521856 55.946494 
L 241.979212 62.691813 
L 246.436568 62.616451 
L 250.893924 67.68891 
L 255.351279 73.459569 
L 259.808635 78.633282 
L 264.265991 84.235736 
L 268.723347 93.143628 
L 273.180703 97.477986 
L 277.638059 109.321817 
L 282.095415 118.856953 
L 286.552771 123.553424 
L 291.010126 142.757178 
L 295.467482 154.810157 
L 299.924838 162.700844 
L 304.382194 161.618394 
L 308.83955 161.618394 
L 313.296906 188.584292 
L 317.754262 193.258124 
L 322.211618 204.839905 
L 326.668973 208.398971 
L 331.126329 221.717899 
L 335.583685 268.498475 
L 340.041041 294.381923 
L 344.498397 268.498475 
L 344.502456 346.6 
M 357.86775 346.6 
L 357.870464 294.381923 
L 362.32782 294.381923 
" style="fill:none;stroke:#ff7f0e;stroke-linecap:square;stroke-width:1.5;"/>
   </g>
   <g id="line2d_51">
    <path clip-path="url(#p7acc16da70)" d="M 288.293804 307.584 
L 288.293804 41.472 
" style="fill:none;stroke:#000000;stroke-dasharray:1.5,2.475;stroke-dashoffset:0;stroke-opacity:0.75;stroke-width:1.5;"/>
   </g>
   <g id="line2d_52">
    <path clip-path="url(#p7acc16da70)" d="M 176.173962 307.584 
L 176.173962 41.472 
" style="fill:none;stroke:#000000;stroke-dasharray:1.5,2.475;stroke-dashoffset:0;stroke-opacity:0.75;stroke-width:1.5;"/>
   </g>
   <g id="line2d_53">
    <path clip-path="url(#p7acc16da70)" d="M 110.074045 264.642809 
L 115.780571 290.526256 
L 121.487098 230.426752 
L 127.193624 238.759361 
L 132.900151 217.862232 
L 138.606677 175.100791 
L 144.313204 167.453374 
L 150.01973 140.211889 
L 155.726257 128.808351 
L 161.432783 112.69753 
L 167.13931 105.995832 
L 172.845836 91.392289 
L 178.552363 81.332374 
L 184.258889 81.194834 
L 189.965416 66.886928 
L 195.671942 68.708846 
L 201.378469 60.850929 
L 207.084995 59.063149 
L 212.791522 55.65619 
L 218.498048 53.568 
L 224.204574 53.963156 
L 229.911101 56.074201 
L 235.617627 55.380093 
L 241.324154 56.710124 
L 247.03068 57.721379 
L 252.737207 63.747103 
L 258.443733 66.886928 
L 264.15026 67.738872 
L 269.856786 71.993769 
L 275.563313 84.046748 
L 281.269839 86.814082 
L 286.976366 87.457924 
L 292.682892 96.611268 
L 298.389419 104.685454 
L 304.095945 105.730052 
L 309.802472 117.456569 
L 315.508998 126.42908 
L 321.215525 134.076497 
L 326.922051 140.211889 
L 332.628577 156.710773 
L 338.335104 161.109017 
L 344.04163 173.440877 
L 349.748157 163.51901 
L 355.454683 182.59422 
L 361.16121 191.978784 
L 366.867736 208.477668 
L 372.574263 194.746118 
L 378.280789 217.862232 
L 383.987316 238.759361 
L 389.693842 249.501962 
L 395.400369 238.759361 
" style="fill:none;stroke:#2ca02c;stroke-linecap:square;stroke-width:1.5;"/>
   </g>
   <g id="line2d_54">
    <path clip-path="url(#p7acc16da70)" d="M 288.293804 307.584 
L 288.293804 41.472 
" style="fill:none;stroke:#000000;stroke-dasharray:1.5,2.475;stroke-dashoffset:0;stroke-opacity:0.75;stroke-width:1.5;"/>
   </g>
   <g id="line2d_55">
    <path clip-path="url(#p7acc16da70)" d="M 176.173962 307.584 
L 176.173962 41.472 
" style="fill:none;stroke:#000000;stroke-dasharray:1.5,2.475;stroke-dashoffset:0;stroke-opacity:0.75;stroke-width:1.5;"/>
   </g>
   <g id="line2d_56">
    <path clip-path="url(#p7acc16da70)" d="M 79.136792 222.622671 
L 85.509733 233.365272 
L 91.882674 173.265768 
L 98.255615 160.701248 
L 104.628556 147.38232 
L 111.001497 136.639719 
L 117.374438 127.567641 
L 123.747379 108.934352 
L 130.12032 106.775258 
L 136.493261 99.205621 
L 142.866202 88.548765 
L 149.239144 85.818239 
L 155.612085 73.839622 
L 161.985026 70.044463 
L 168.357967 68.658418 
L 174.730908 65.891084 
L 181.103849 62.536773 
L 187.47679 59.815297 
L 193.849731 55.749929 
L 200.222672 62.153776 
L 206.595613 57.167457 
L 212.968554 54.384249 
L 219.341495 53.568 
L 225.714436 57.278759 
L 232.087377 59.459091 
L 238.460318 56.397493 
L 244.83326 59.223495 
L 251.206201 58.410419 
L 257.579142 63.709914 
L 263.952083 67.614864 
L 270.325024 69.114741 
L 276.697965 65.611368 
L 283.070906 69.422083 
L 289.443847 78.85076 
L 295.816788 79.049918 
L 302.189729 81.102188 
L 308.56267 86.543347 
L 314.935611 88.037223 
L 321.308552 95.615424 
L 327.681493 99.205621 
L 334.054435 105.945404 
L 340.427376 106.775258 
L 346.800317 114.690635 
L 353.173258 123.414262 
L 359.546199 126.842533 
L 365.91914 140.574083 
L 372.292081 147.38232 
L 378.665022 154.190557 
L 385.037963 166.45753 
L 391.410904 201.725542 
L 397.783845 201.725542 
" style="fill:none;stroke:#d62728;stroke-linecap:square;stroke-width:1.5;"/>
   </g>
   <g id="line2d_57">
    <path clip-path="url(#p7acc16da70)" d="M 288.293804 307.584 
L 288.293804 41.472 
" style="fill:none;stroke:#000000;stroke-dasharray:1.5,2.475;stroke-dashoffset:0;stroke-opacity:0.75;stroke-width:1.5;"/>
   </g>
   <g id="line2d_58">
    <path clip-path="url(#p7acc16da70)" d="M 176.173962 307.584 
L 176.173962 41.472 
" style="fill:none;stroke:#000000;stroke-dasharray:1.5,2.475;stroke-dashoffset:0;stroke-opacity:0.75;stroke-width:1.5;"/>
   </g>
   <g id="line2d_59">
    <path clip-path="url(#p7acc16da70)" d="M 76.378962 206.768587 
L 82.81435 152.737852 
L 89.249739 129.118244 
L 95.685127 123.696869 
L 102.120515 97.31218 
L 108.555903 100.970956 
L 114.991291 86.569578 
L 121.426679 86.944877 
L 127.862067 76.772392 
L 134.297455 75.087509 
L 140.732843 67.644035 
L 147.168231 65.886444 
L 153.60362 66.318147 
L 160.039008 60.314566 
L 166.474396 57.985538 
L 172.909784 55.793283 
L 179.345172 59.042455 
L 185.78056 53.722625 
L 192.215948 53.568 
L 198.651336 53.722625 
L 205.086724 55.629861 
L 211.522112 55.305147 
L 217.9575 54.03381 
L 224.392889 55.793283 
L 230.828277 54.664068 
L 237.263665 54.03381 
L 243.699053 60.314566 
L 250.134441 59.042455 
L 256.569829 59.946662 
L 263.005217 62.210502 
L 269.440605 66.535885 
L 275.875993 68.325062 
L 282.311381 73.739278 
L 288.74677 75.087509 
L 295.182158 79.451448 
L 301.617546 82.005737 
L 308.052934 85.465796 
L 314.488322 86.198014 
L 320.92371 92.201595 
L 327.359098 96.329441 
L 333.794486 93.980118 
L 340.229874 108.221115 
L 346.665262 112.453026 
L 353.10065 129.118244 
L 359.536039 120.785635 
L 365.971427 124.719999 
L 372.406815 138.336474 
L 378.842203 148.584473 
L 385.277591 172.552531 
L 391.712979 159.988011 
L 398.148367 206.768587 
" style="fill:none;stroke:#9467bd;stroke-linecap:square;stroke-width:1.5;"/>
   </g>
   <g id="line2d_60">
    <path clip-path="url(#p7acc16da70)" d="M 288.293804 307.584 
L 288.293804 41.472 
" style="fill:none;stroke:#000000;stroke-dasharray:1.5,2.475;stroke-dashoffset:0;stroke-opacity:0.75;stroke-width:1.5;"/>
   </g>
   <g id="line2d_61">
    <path clip-path="url(#p7acc16da70)" d="M 176.173962 307.584 
L 176.173962 41.472 
" style="fill:none;stroke:#000000;stroke-dasharray:1.5,2.475;stroke-dashoffset:0;stroke-opacity:0.75;stroke-width:1.5;"/>
   </g>
   <g id="line2d_62">
    <path clip-path="url(#p7acc16da70)" d="M 74.220682 150.95449 
L 80.61423 145.968171 
L 87.007777 118.935651 
L 93.401324 116.738433 
L 99.794871 99.187594 
L 106.188418 87.29592 
L 112.581966 79.451448 
L 118.975513 80.245987 
L 125.36906 76.796589 
L 131.762607 67.168755 
L 138.156154 67.168755 
L 144.549701 68.027228 
L 150.943249 64.179806 
L 157.336796 53.963156 
L 163.730343 60.930634 
L 170.12389 58.1633 
L 176.517437 53.568 
L 182.910985 56.004206 
L 189.304532 53.568 
L 195.698079 54.362539 
L 202.091626 56.426154 
L 208.485173 58.610514 
L 214.87872 64.971538 
L 221.272268 60.454935 
L 227.665815 60.219338 
L 234.059362 63.149619 
L 240.452909 62.644991 
L 246.846456 61.412472 
L 253.240004 63.919583 
L 259.633551 65.78042 
L 266.027098 72.972216 
L 272.420645 77.164493 
L 278.814192 72.317078 
L 285.207739 83.168074 
L 291.601287 87.784057 
L 297.994834 86.338383 
L 304.388381 95.994032 
L 310.781928 92.49066 
L 317.175475 86.814082 
L 323.569023 109.051522 
L 329.96257 97.877217 
L 336.356117 116.738433 
L 342.749664 114.663348 
L 349.143211 117.820884 
L 355.536758 130.827325 
L 361.930306 118.935651 
L 368.323853 129.302953 
L 374.7174 145.968171 
L 381.110947 148.378164 
L 387.504494 153.721824 
L 393.898042 189.402458 
" style="fill:none;stroke:#8c564b;stroke-linecap:square;stroke-width:1.5;"/>
   </g>
   <g id="line2d_63">
    <path clip-path="url(#p7acc16da70)" d="M 288.293804 307.584 
L 288.293804 41.472 
" style="fill:none;stroke:#000000;stroke-dasharray:1.5,2.475;stroke-dashoffset:0;stroke-opacity:0.75;stroke-width:1.5;"/>
   </g>
   <g id="line2d_64">
    <path clip-path="url(#p7acc16da70)" d="M 176.173962 307.584 
L 176.173962 41.472 
" style="fill:none;stroke:#000000;stroke-dasharray:1.5,2.475;stroke-dashoffset:0;stroke-opacity:0.75;stroke-width:1.5;"/>
   </g>
   <g id="line2d_65">
    <path clip-path="url(#p7acc16da70)" d="M 73.832727 161.795231 
L 80.325818 122.592855 
L 86.818909 96.709407 
L 93.312 94.887489 
L 99.805091 90.687345 
L 106.298182 77.447952 
L 112.791273 75.812278 
L 119.284364 70.362079 
L 125.777455 68.56212 
L 132.270545 65.60698 
L 138.763636 66.427715 
L 145.256727 56.312723 
L 151.749818 53.568 
L 158.242909 62.49335 
L 164.736 53.568 
L 171.229091 59.27531 
L 177.722182 53.568 
L 184.215273 59.27531 
L 190.708364 60.671432 
L 197.201455 57.600503 
L 203.694545 58.261439 
L 210.187636 60.671432 
L 216.680727 57.600503 
L 223.173818 64.017722 
L 229.666909 64.017722 
L 236.16 71.295675 
L 242.653091 69.451255 
L 249.146182 68.56212 
L 255.639273 74.760324 
L 262.132364 74.245254 
L 268.625455 80.344126 
L 275.118545 73.235952 
L 281.611636 87.63733 
L 288.104727 85.502925 
L 294.597818 95.787338 
L 301.090909 85.502925 
L 307.584 96.709407 
L 314.077091 107.452009 
L 320.570182 106.227574 
L 327.063273 98.624797 
L 333.556364 101.695726 
L 340.049455 135.911783 
L 346.542545 141.668065 
L 353.035636 128.661624 
L 359.528727 152.410667 
L 366.021818 138.679117 
L 372.514909 120.770936 
L 379.008 174.35975 
L 385.501091 161.795231 
L 391.994182 182.69236 
L 398.487273 193.434961 
" style="fill:none;stroke:#e377c2;stroke-linecap:square;stroke-width:1.5;"/>
   </g>
   <g id="line2d_66">
    <path clip-path="url(#p7acc16da70)" d="M 288.293804 307.584 
L 288.293804 41.472 
" style="fill:none;stroke:#000000;stroke-dasharray:1.5,2.475;stroke-dashoffset:0;stroke-opacity:0.75;stroke-width:1.5;"/>
   </g>
   <g id="line2d_67">
    <path clip-path="url(#p7acc16da70)" d="M 176.173962 307.584 
L 176.173962 41.472 
" style="fill:none;stroke:#000000;stroke-dasharray:1.5,2.475;stroke-dashoffset:0;stroke-opacity:0.75;stroke-width:1.5;"/>
   </g>
   <g id="patch_3">
    <path d="M 57.6 307.584 
L 57.6 41.472 
" style="fill:none;stroke:#000000;stroke-linecap:square;stroke-linejoin:miter;stroke-width:0.8;"/>
   </g>
   <g id="patch_4">
    <path d="M 414.72 307.584 
L 414.72 41.472 
" style="fill:none;stroke:#000000;stroke-linecap:square;stroke-linejoin:miter;stroke-width:0.8;"/>
   </g>
   <g id="patch_5">
    <path d="M 57.6 307.584 
L 414.72 307.584 
" style="fill:none;stroke:#000000;stroke-linecap:square;stroke-linejoin:miter;stroke-width:0.8;"/>
   </g>
   <g id="patch_6">
    <path d="M 57.6 41.472 
L 414.72 41.472 
" style="fill:none;stroke:#000000;stroke-linecap:square;stroke-linejoin:miter;stroke-width:0.8;"/>
   </g>
   <g id="text_14">
    <!-- Particle location histogram -->
    <g transform="translate(155.955938 35.472)scale(0.12 -0.12)">
     <defs>
      <path d="M 19.671875 64.796875 
L 19.671875 37.40625 
L 32.078125 37.40625 
Q 38.96875 37.40625 42.71875 40.96875 
Q 46.484375 44.53125 46.484375 51.125 
Q 46.484375 57.671875 42.71875 61.234375 
Q 38.96875 64.796875 32.078125 64.796875 
z
M 9.8125 72.90625 
L 32.078125 72.90625 
Q 44.34375 72.90625 50.609375 67.359375 
Q 56.890625 61.8125 56.890625 51.125 
Q 56.890625 40.328125 50.609375 34.8125 
Q 44.34375 29.296875 32.078125 29.296875 
L 19.671875 29.296875 
L 19.671875 0 
L 9.8125 0 
z
" id="DejaVuSans-80"/>
     </defs>
     <use xlink:href="#DejaVuSans-80"/>
     <use x="55.802734" xlink:href="#DejaVuSans-97"/>
     <use x="117.082031" xlink:href="#DejaVuSans-114"/>
     <use x="158.195312" xlink:href="#DejaVuSans-116"/>
     <use x="197.404297" xlink:href="#DejaVuSans-105"/>
     <use x="225.1875" xlink:href="#DejaVuSans-99"/>
     <use x="280.167969" xlink:href="#DejaVuSans-108"/>
     <use x="307.951172" xlink:href="#DejaVuSans-101"/>
     <use x="369.474609" xlink:href="#DejaVuSans-32"/>
     <use x="401.261719" xlink:href="#DejaVuSans-108"/>
     <use x="429.044922" xlink:href="#DejaVuSans-111"/>
     <use x="490.226562" xlink:href="#DejaVuSans-99"/>
     <use x="545.207031" xlink:href="#DejaVuSans-97"/>
     <use x="606.486328" xlink:href="#DejaVuSans-116"/>
     <use x="645.695312" xlink:href="#DejaVuSans-105"/>
     <use x="673.478516" xlink:href="#DejaVuSans-111"/>
     <use x="734.660156" xlink:href="#DejaVuSans-110"/>
     <use x="798.039062" xlink:href="#DejaVuSans-32"/>
     <use x="829.826172" xlink:href="#DejaVuSans-104"/>
     <use x="893.205078" xlink:href="#DejaVuSans-105"/>
     <use x="920.988281" xlink:href="#DejaVuSans-115"/>
     <use x="973.087891" xlink:href="#DejaVuSans-116"/>
     <use x="1012.296875" xlink:href="#DejaVuSans-111"/>
     <use x="1073.478516" xlink:href="#DejaVuSans-103"/>
     <use x="1136.955078" xlink:href="#DejaVuSans-114"/>
     <use x="1178.068359" xlink:href="#DejaVuSans-97"/>
     <use x="1239.347656" xlink:href="#DejaVuSans-109"/>
    </g>
   </g>
   <g id="legend_1">
    <g id="patch_7">
     <path d="M 242.116875 302.584 
L 407.72 302.584 
Q 409.72 302.584 409.72 300.584 
L 409.72 198.837125 
Q 409.72 196.837125 407.72 196.837125 
L 242.116875 196.837125 
Q 240.116875 196.837125 240.116875 198.837125 
L 240.116875 300.584 
Q 240.116875 302.584 242.116875 302.584 
z
" style="fill:#ffffff;opacity:0.8;stroke:#cccccc;stroke-linejoin:miter;"/>
    </g>
    <g id="line2d_68">
     <path d="M 244.116875 204.935563 
L 264.116875 204.935563 
" style="fill:none;stroke:#1f77b4;stroke-linecap:square;stroke-width:1.5;"/>
    </g>
    <g id="line2d_69"/>
    <g id="text_15">
     <!-- t = 141.82 yr, N = 10000 -->
     <g transform="translate(272.116875 208.435563)scale(0.1 -0.1)">
      <defs>
       <path d="M 10.59375 45.40625 
L 73.1875 45.40625 
L 73.1875 37.203125 
L 10.59375 37.203125 
z
M 10.59375 25.484375 
L 73.1875 25.484375 
L 73.1875 17.1875 
L 10.59375 17.1875 
z
" id="DejaVuSans-61"/>
       <path d="M 37.796875 64.3125 
L 12.890625 25.390625 
L 37.796875 25.390625 
z
M 35.203125 72.90625 
L 47.609375 72.90625 
L 47.609375 25.390625 
L 58.015625 25.390625 
L 58.015625 17.1875 
L 47.609375 17.1875 
L 47.609375 0 
L 37.796875 0 
L 37.796875 17.1875 
L 4.890625 17.1875 
L 4.890625 26.703125 
z
" id="DejaVuSans-52"/>
       <path d="M 31.78125 34.625 
Q 24.75 34.625 20.71875 30.859375 
Q 16.703125 27.09375 16.703125 20.515625 
Q 16.703125 13.921875 20.71875 10.15625 
Q 24.75 6.390625 31.78125 6.390625 
Q 38.8125 6.390625 42.859375 10.171875 
Q 46.921875 13.96875 46.921875 20.515625 
Q 46.921875 27.09375 42.890625 30.859375 
Q 38.875 34.625 31.78125 34.625 
z
M 21.921875 38.8125 
Q 15.578125 40.375 12.03125 44.71875 
Q 8.5 49.078125 8.5 55.328125 
Q 8.5 64.0625 14.71875 69.140625 
Q 20.953125 74.21875 31.78125 74.21875 
Q 42.671875 74.21875 48.875 69.140625 
Q 55.078125 64.0625 55.078125 55.328125 
Q 55.078125 49.078125 51.53125 44.71875 
Q 48 40.375 41.703125 38.8125 
Q 48.828125 37.15625 52.796875 32.3125 
Q 56.78125 27.484375 56.78125 20.515625 
Q 56.78125 9.90625 50.3125 4.234375 
Q 43.84375 -1.421875 31.78125 -1.421875 
Q 19.734375 -1.421875 13.25 4.234375 
Q 6.78125 9.90625 6.78125 20.515625 
Q 6.78125 27.484375 10.78125 32.3125 
Q 14.796875 37.15625 21.921875 38.8125 
z
M 18.3125 54.390625 
Q 18.3125 48.734375 21.84375 45.5625 
Q 25.390625 42.390625 31.78125 42.390625 
Q 38.140625 42.390625 41.71875 45.5625 
Q 45.3125 48.734375 45.3125 54.390625 
Q 45.3125 60.0625 41.71875 63.234375 
Q 38.140625 66.40625 31.78125 66.40625 
Q 25.390625 66.40625 21.84375 63.234375 
Q 18.3125 60.0625 18.3125 54.390625 
z
" id="DejaVuSans-56"/>
       <path d="M 32.171875 -5.078125 
Q 28.375 -14.84375 24.75 -17.8125 
Q 21.140625 -20.796875 15.09375 -20.796875 
L 7.90625 -20.796875 
L 7.90625 -13.28125 
L 13.1875 -13.28125 
Q 16.890625 -13.28125 18.9375 -11.515625 
Q 21 -9.765625 23.484375 -3.21875 
L 25.09375 0.875 
L 2.984375 54.6875 
L 12.5 54.6875 
L 29.59375 11.921875 
L 46.6875 54.6875 
L 56.203125 54.6875 
z
" id="DejaVuSans-121"/>
       <path d="M 11.71875 12.40625 
L 22.015625 12.40625 
L 22.015625 4 
L 14.015625 -11.625 
L 7.71875 -11.625 
L 11.71875 4 
z
" id="DejaVuSans-44"/>
       <path d="M 9.8125 72.90625 
L 23.09375 72.90625 
L 55.421875 11.921875 
L 55.421875 72.90625 
L 64.984375 72.90625 
L 64.984375 0 
L 51.703125 0 
L 19.390625 60.984375 
L 19.390625 0 
L 9.8125 0 
z
" id="DejaVuSans-78"/>
      </defs>
      <use xlink:href="#DejaVuSans-116"/>
      <use x="39.208984" xlink:href="#DejaVuSans-32"/>
      <use x="70.996094" xlink:href="#DejaVuSans-61"/>
      <use x="154.785156" xlink:href="#DejaVuSans-32"/>
      <use x="186.572266" xlink:href="#DejaVuSans-49"/>
      <use x="250.195312" xlink:href="#DejaVuSans-52"/>
      <use x="313.818359" xlink:href="#DejaVuSans-49"/>
      <use x="377.441406" xlink:href="#DejaVuSans-46"/>
      <use x="409.228516" xlink:href="#DejaVuSans-56"/>
      <use x="472.851562" xlink:href="#DejaVuSans-50"/>
      <use x="536.474609" xlink:href="#DejaVuSans-32"/>
      <use x="568.261719" xlink:href="#DejaVuSans-121"/>
      <use x="627.441406" xlink:href="#DejaVuSans-114"/>
      <use x="668.554688" xlink:href="#DejaVuSans-44"/>
      <use x="700.341797" xlink:href="#DejaVuSans-32"/>
      <use x="732.128906" xlink:href="#DejaVuSans-78"/>
      <use x="806.933594" xlink:href="#DejaVuSans-32"/>
      <use x="838.720703" xlink:href="#DejaVuSans-61"/>
      <use x="922.509766" xlink:href="#DejaVuSans-32"/>
      <use x="954.296875" xlink:href="#DejaVuSans-49"/>
      <use x="1017.919922" xlink:href="#DejaVuSans-48"/>
      <use x="1081.542969" xlink:href="#DejaVuSans-48"/>
      <use x="1145.166016" xlink:href="#DejaVuSans-48"/>
      <use x="1208.789062" xlink:href="#DejaVuSans-48"/>
     </g>
    </g>
    <g id="line2d_70">
     <path d="M 244.116875 219.613688 
L 264.116875 219.613688 
" style="fill:none;stroke:#ff7f0e;stroke-linecap:square;stroke-width:1.5;"/>
    </g>
    <g id="line2d_71"/>
    <g id="text_16">
     <!-- t = 709.08 yr, N = 10000 -->
     <g transform="translate(272.116875 223.113688)scale(0.1 -0.1)">
      <defs>
       <path d="M 10.984375 1.515625 
L 10.984375 10.5 
Q 14.703125 8.734375 18.5 7.8125 
Q 22.3125 6.890625 25.984375 6.890625 
Q 35.75 6.890625 40.890625 13.453125 
Q 46.046875 20.015625 46.78125 33.40625 
Q 43.953125 29.203125 39.59375 26.953125 
Q 35.25 24.703125 29.984375 24.703125 
Q 19.046875 24.703125 12.671875 31.3125 
Q 6.296875 37.9375 6.296875 49.421875 
Q 6.296875 60.640625 12.9375 67.421875 
Q 19.578125 74.21875 30.609375 74.21875 
Q 43.265625 74.21875 49.921875 64.515625 
Q 56.59375 54.828125 56.59375 36.375 
Q 56.59375 19.140625 48.40625 8.859375 
Q 40.234375 -1.421875 26.421875 -1.421875 
Q 22.703125 -1.421875 18.890625 -0.6875 
Q 15.09375 0.046875 10.984375 1.515625 
z
M 30.609375 32.421875 
Q 37.25 32.421875 41.125 36.953125 
Q 45.015625 41.5 45.015625 49.421875 
Q 45.015625 57.28125 41.125 61.84375 
Q 37.25 66.40625 30.609375 66.40625 
Q 23.96875 66.40625 20.09375 61.84375 
Q 16.21875 57.28125 16.21875 49.421875 
Q 16.21875 41.5 20.09375 36.953125 
Q 23.96875 32.421875 30.609375 32.421875 
z
" id="DejaVuSans-57"/>
      </defs>
      <use xlink:href="#DejaVuSans-116"/>
      <use x="39.208984" xlink:href="#DejaVuSans-32"/>
      <use x="70.996094" xlink:href="#DejaVuSans-61"/>
      <use x="154.785156" xlink:href="#DejaVuSans-32"/>
      <use x="186.572266" xlink:href="#DejaVuSans-55"/>
      <use x="250.195312" xlink:href="#DejaVuSans-48"/>
      <use x="313.818359" xlink:href="#DejaVuSans-57"/>
      <use x="377.441406" xlink:href="#DejaVuSans-46"/>
      <use x="409.228516" xlink:href="#DejaVuSans-48"/>
      <use x="472.851562" xlink:href="#DejaVuSans-56"/>
      <use x="536.474609" xlink:href="#DejaVuSans-32"/>
      <use x="568.261719" xlink:href="#DejaVuSans-121"/>
      <use x="627.441406" xlink:href="#DejaVuSans-114"/>
      <use x="668.554688" xlink:href="#DejaVuSans-44"/>
      <use x="700.341797" xlink:href="#DejaVuSans-32"/>
      <use x="732.128906" xlink:href="#DejaVuSans-78"/>
      <use x="806.933594" xlink:href="#DejaVuSans-32"/>
      <use x="838.720703" xlink:href="#DejaVuSans-61"/>
      <use x="922.509766" xlink:href="#DejaVuSans-32"/>
      <use x="954.296875" xlink:href="#DejaVuSans-49"/>
      <use x="1017.919922" xlink:href="#DejaVuSans-48"/>
      <use x="1081.542969" xlink:href="#DejaVuSans-48"/>
      <use x="1145.166016" xlink:href="#DejaVuSans-48"/>
      <use x="1208.789062" xlink:href="#DejaVuSans-48"/>
     </g>
    </g>
    <g id="line2d_72">
     <path d="M 244.116875 234.291812 
L 264.116875 234.291812 
" style="fill:none;stroke:#2ca02c;stroke-linecap:square;stroke-width:1.5;"/>
    </g>
    <g id="line2d_73"/>
    <g id="text_17">
     <!-- t = 1418.16 yr, N = 9982 -->
     <g transform="translate(272.116875 237.791812)scale(0.1 -0.1)">
      <defs>
       <path d="M 33.015625 40.375 
Q 26.375 40.375 22.484375 35.828125 
Q 18.609375 31.296875 18.609375 23.390625 
Q 18.609375 15.53125 22.484375 10.953125 
Q 26.375 6.390625 33.015625 6.390625 
Q 39.65625 6.390625 43.53125 10.953125 
Q 47.40625 15.53125 47.40625 23.390625 
Q 47.40625 31.296875 43.53125 35.828125 
Q 39.65625 40.375 33.015625 40.375 
z
M 52.59375 71.296875 
L 52.59375 62.3125 
Q 48.875 64.0625 45.09375 64.984375 
Q 41.3125 65.921875 37.59375 65.921875 
Q 27.828125 65.921875 22.671875 59.328125 
Q 17.53125 52.734375 16.796875 39.40625 
Q 19.671875 43.65625 24.015625 45.921875 
Q 28.375 48.1875 33.59375 48.1875 
Q 44.578125 48.1875 50.953125 41.515625 
Q 57.328125 34.859375 57.328125 23.390625 
Q 57.328125 12.15625 50.6875 5.359375 
Q 44.046875 -1.421875 33.015625 -1.421875 
Q 20.359375 -1.421875 13.671875 8.265625 
Q 6.984375 17.96875 6.984375 36.375 
Q 6.984375 53.65625 15.1875 63.9375 
Q 23.390625 74.21875 37.203125 74.21875 
Q 40.921875 74.21875 44.703125 73.484375 
Q 48.484375 72.75 52.59375 71.296875 
z
" id="DejaVuSans-54"/>
      </defs>
      <use xlink:href="#DejaVuSans-116"/>
      <use x="39.208984" xlink:href="#DejaVuSans-32"/>
      <use x="70.996094" xlink:href="#DejaVuSans-61"/>
      <use x="154.785156" xlink:href="#DejaVuSans-32"/>
      <use x="186.572266" xlink:href="#DejaVuSans-49"/>
      <use x="250.195312" xlink:href="#DejaVuSans-52"/>
      <use x="313.818359" xlink:href="#DejaVuSans-49"/>
      <use x="377.441406" xlink:href="#DejaVuSans-56"/>
      <use x="441.064453" xlink:href="#DejaVuSans-46"/>
      <use x="472.851562" xlink:href="#DejaVuSans-49"/>
      <use x="536.474609" xlink:href="#DejaVuSans-54"/>
      <use x="600.097656" xlink:href="#DejaVuSans-32"/>
      <use x="631.884766" xlink:href="#DejaVuSans-121"/>
      <use x="691.064453" xlink:href="#DejaVuSans-114"/>
      <use x="732.177734" xlink:href="#DejaVuSans-44"/>
      <use x="763.964844" xlink:href="#DejaVuSans-32"/>
      <use x="795.751953" xlink:href="#DejaVuSans-78"/>
      <use x="870.556641" xlink:href="#DejaVuSans-32"/>
      <use x="902.34375" xlink:href="#DejaVuSans-61"/>
      <use x="986.132812" xlink:href="#DejaVuSans-32"/>
      <use x="1017.919922" xlink:href="#DejaVuSans-57"/>
      <use x="1081.542969" xlink:href="#DejaVuSans-57"/>
      <use x="1145.166016" xlink:href="#DejaVuSans-56"/>
      <use x="1208.789062" xlink:href="#DejaVuSans-50"/>
     </g>
    </g>
    <g id="line2d_74">
     <path d="M 244.116875 248.969938 
L 264.116875 248.969938 
" style="fill:none;stroke:#d62728;stroke-linecap:square;stroke-width:1.5;"/>
    </g>
    <g id="line2d_75"/>
    <g id="text_18">
     <!-- t = 4254.47 yr, N = 8520 -->
     <g transform="translate(272.116875 252.469938)scale(0.1 -0.1)">
      <use xlink:href="#DejaVuSans-116"/>
      <use x="39.208984" xlink:href="#DejaVuSans-32"/>
      <use x="70.996094" xlink:href="#DejaVuSans-61"/>
      <use x="154.785156" xlink:href="#DejaVuSans-32"/>
      <use x="186.572266" xlink:href="#DejaVuSans-52"/>
      <use x="250.195312" xlink:href="#DejaVuSans-50"/>
      <use x="313.818359" xlink:href="#DejaVuSans-53"/>
      <use x="377.441406" xlink:href="#DejaVuSans-52"/>
      <use x="441.064453" xlink:href="#DejaVuSans-46"/>
      <use x="472.851562" xlink:href="#DejaVuSans-52"/>
      <use x="536.474609" xlink:href="#DejaVuSans-55"/>
      <use x="600.097656" xlink:href="#DejaVuSans-32"/>
      <use x="631.884766" xlink:href="#DejaVuSans-121"/>
      <use x="691.064453" xlink:href="#DejaVuSans-114"/>
      <use x="732.177734" xlink:href="#DejaVuSans-44"/>
      <use x="763.964844" xlink:href="#DejaVuSans-32"/>
      <use x="795.751953" xlink:href="#DejaVuSans-78"/>
      <use x="870.556641" xlink:href="#DejaVuSans-32"/>
      <use x="902.34375" xlink:href="#DejaVuSans-61"/>
      <use x="986.132812" xlink:href="#DejaVuSans-32"/>
      <use x="1017.919922" xlink:href="#DejaVuSans-56"/>
      <use x="1081.542969" xlink:href="#DejaVuSans-53"/>
      <use x="1145.166016" xlink:href="#DejaVuSans-50"/>
      <use x="1208.789062" xlink:href="#DejaVuSans-48"/>
     </g>
    </g>
    <g id="line2d_76">
     <path d="M 244.116875 263.648063 
L 264.116875 263.648063 
" style="fill:none;stroke:#9467bd;stroke-linecap:square;stroke-width:1.5;"/>
    </g>
    <g id="line2d_77"/>
    <g id="text_19">
     <!-- t = 7090.78 yr, N = 6576 -->
     <g transform="translate(272.116875 267.148063)scale(0.1 -0.1)">
      <use xlink:href="#DejaVuSans-116"/>
      <use x="39.208984" xlink:href="#DejaVuSans-32"/>
      <use x="70.996094" xlink:href="#DejaVuSans-61"/>
      <use x="154.785156" xlink:href="#DejaVuSans-32"/>
      <use x="186.572266" xlink:href="#DejaVuSans-55"/>
      <use x="250.195312" xlink:href="#DejaVuSans-48"/>
      <use x="313.818359" xlink:href="#DejaVuSans-57"/>
      <use x="377.441406" xlink:href="#DejaVuSans-48"/>
      <use x="441.064453" xlink:href="#DejaVuSans-46"/>
      <use x="472.851562" xlink:href="#DejaVuSans-55"/>
      <use x="536.474609" xlink:href="#DejaVuSans-56"/>
      <use x="600.097656" xlink:href="#DejaVuSans-32"/>
      <use x="631.884766" xlink:href="#DejaVuSans-121"/>
      <use x="691.064453" xlink:href="#DejaVuSans-114"/>
      <use x="732.177734" xlink:href="#DejaVuSans-44"/>
      <use x="763.964844" xlink:href="#DejaVuSans-32"/>
      <use x="795.751953" xlink:href="#DejaVuSans-78"/>
      <use x="870.556641" xlink:href="#DejaVuSans-32"/>
      <use x="902.34375" xlink:href="#DejaVuSans-61"/>
      <use x="986.132812" xlink:href="#DejaVuSans-32"/>
      <use x="1017.919922" xlink:href="#DejaVuSans-54"/>
      <use x="1081.542969" xlink:href="#DejaVuSans-53"/>
      <use x="1145.166016" xlink:href="#DejaVuSans-55"/>
      <use x="1208.789062" xlink:href="#DejaVuSans-54"/>
     </g>
    </g>
    <g id="line2d_78">
     <path d="M 244.116875 278.326188 
L 264.116875 278.326188 
" style="fill:none;stroke:#8c564b;stroke-linecap:square;stroke-width:1.5;"/>
    </g>
    <g id="line2d_79"/>
    <g id="text_20">
     <!-- t = 9927.09 yr, N = 4957 -->
     <g transform="translate(272.116875 281.826188)scale(0.1 -0.1)">
      <use xlink:href="#DejaVuSans-116"/>
      <use x="39.208984" xlink:href="#DejaVuSans-32"/>
      <use x="70.996094" xlink:href="#DejaVuSans-61"/>
      <use x="154.785156" xlink:href="#DejaVuSans-32"/>
      <use x="186.572266" xlink:href="#DejaVuSans-57"/>
      <use x="250.195312" xlink:href="#DejaVuSans-57"/>
      <use x="313.818359" xlink:href="#DejaVuSans-50"/>
      <use x="377.441406" xlink:href="#DejaVuSans-55"/>
      <use x="441.064453" xlink:href="#DejaVuSans-46"/>
      <use x="472.851562" xlink:href="#DejaVuSans-48"/>
      <use x="536.474609" xlink:href="#DejaVuSans-57"/>
      <use x="600.097656" xlink:href="#DejaVuSans-32"/>
      <use x="631.884766" xlink:href="#DejaVuSans-121"/>
      <use x="691.064453" xlink:href="#DejaVuSans-114"/>
      <use x="732.177734" xlink:href="#DejaVuSans-44"/>
      <use x="763.964844" xlink:href="#DejaVuSans-32"/>
      <use x="795.751953" xlink:href="#DejaVuSans-78"/>
      <use x="870.556641" xlink:href="#DejaVuSans-32"/>
      <use x="902.34375" xlink:href="#DejaVuSans-61"/>
      <use x="986.132812" xlink:href="#DejaVuSans-32"/>
      <use x="1017.919922" xlink:href="#DejaVuSans-52"/>
      <use x="1081.542969" xlink:href="#DejaVuSans-57"/>
      <use x="1145.166016" xlink:href="#DejaVuSans-53"/>
      <use x="1208.789062" xlink:href="#DejaVuSans-55"/>
     </g>
    </g>
    <g id="line2d_80">
     <path d="M 244.116875 293.004312 
L 264.116875 293.004312 
" style="fill:none;stroke:#e377c2;stroke-linecap:square;stroke-width:1.5;"/>
    </g>
    <g id="line2d_81"/>
    <g id="text_21">
     <!-- t = 14181.56 yr, N = 3208 -->
     <g transform="translate(272.116875 296.504312)scale(0.1 -0.1)">
      <defs>
       <path d="M 40.578125 39.3125 
Q 47.65625 37.796875 51.625 33 
Q 55.609375 28.21875 55.609375 21.1875 
Q 55.609375 10.40625 48.1875 4.484375 
Q 40.765625 -1.421875 27.09375 -1.421875 
Q 22.515625 -1.421875 17.65625 -0.515625 
Q 12.796875 0.390625 7.625 2.203125 
L 7.625 11.71875 
Q 11.71875 9.328125 16.59375 8.109375 
Q 21.484375 6.890625 26.8125 6.890625 
Q 36.078125 6.890625 40.9375 10.546875 
Q 45.796875 14.203125 45.796875 21.1875 
Q 45.796875 27.640625 41.28125 31.265625 
Q 36.765625 34.90625 28.71875 34.90625 
L 20.21875 34.90625 
L 20.21875 43.015625 
L 29.109375 43.015625 
Q 36.375 43.015625 40.234375 45.921875 
Q 44.09375 48.828125 44.09375 54.296875 
Q 44.09375 59.90625 40.109375 62.90625 
Q 36.140625 65.921875 28.71875 65.921875 
Q 24.65625 65.921875 20.015625 65.03125 
Q 15.375 64.15625 9.8125 62.3125 
L 9.8125 71.09375 
Q 15.4375 72.65625 20.34375 73.4375 
Q 25.25 74.21875 29.59375 74.21875 
Q 40.828125 74.21875 47.359375 69.109375 
Q 53.90625 64.015625 53.90625 55.328125 
Q 53.90625 49.265625 50.4375 45.09375 
Q 46.96875 40.921875 40.578125 39.3125 
z
" id="DejaVuSans-51"/>
      </defs>
      <use xlink:href="#DejaVuSans-116"/>
      <use x="39.208984" xlink:href="#DejaVuSans-32"/>
      <use x="70.996094" xlink:href="#DejaVuSans-61"/>
      <use x="154.785156" xlink:href="#DejaVuSans-32"/>
      <use x="186.572266" xlink:href="#DejaVuSans-49"/>
      <use x="250.195312" xlink:href="#DejaVuSans-52"/>
      <use x="313.818359" xlink:href="#DejaVuSans-49"/>
      <use x="377.441406" xlink:href="#DejaVuSans-56"/>
      <use x="441.064453" xlink:href="#DejaVuSans-49"/>
      <use x="504.6875" xlink:href="#DejaVuSans-46"/>
      <use x="536.474609" xlink:href="#DejaVuSans-53"/>
      <use x="600.097656" xlink:href="#DejaVuSans-54"/>
      <use x="663.720703" xlink:href="#DejaVuSans-32"/>
      <use x="695.507812" xlink:href="#DejaVuSans-121"/>
      <use x="754.6875" xlink:href="#DejaVuSans-114"/>
      <use x="795.800781" xlink:href="#DejaVuSans-44"/>
      <use x="827.587891" xlink:href="#DejaVuSans-32"/>
      <use x="859.375" xlink:href="#DejaVuSans-78"/>
      <use x="934.179688" xlink:href="#DejaVuSans-32"/>
      <use x="965.966797" xlink:href="#DejaVuSans-61"/>
      <use x="1049.755859" xlink:href="#DejaVuSans-32"/>
      <use x="1081.542969" xlink:href="#DejaVuSans-51"/>
      <use x="1145.166016" xlink:href="#DejaVuSans-50"/>
      <use x="1208.789062" xlink:href="#DejaVuSans-48"/>
      <use x="1272.412109" xlink:href="#DejaVuSans-56"/>
     </g>
    </g>
   </g>
  </g>
 </g>
 <defs>
  <clipPath id="p7acc16da70">
   <rect height="266.112" width="357.12" x="57.6" y="41.472"/>
  </clipPath>
 </defs>
</svg>
